<?xml version="1.0" encoding="utf-8" standalone="no"?>
<!DOCTYPE svg PUBLIC "-//W3C//DTD SVG 1.1//EN"
        "http://www.w3.org/Graphics/SVG/1.1/DTD/svg11.dtd">
<!-- Created with matplotlib (https://matplotlib.org/) -->
<svg height="345.6pt" version="1.1" viewBox="0 0 460.8 345.6" width="460.8pt" xmlns="http://www.w3.org/2000/svg"
     xmlns:xlink="http://www.w3.org/1999/xlink">
    <defs>
        <style type="text/css">
            *{stroke-linecap:butt;stroke-linejoin:round;}
        </style>
    </defs>
    <g id="figure_1">
        <g id="patch_1">
            <path d="M 0 345.6
L 460.8 345.6 
L 460.8 0 
L 0 0 
z
" style="fill:none;"/>
        </g>
        <g id="axes_1">
            <g id="patch_2">
                <path d="M 57.6 307.584
L 414.72 307.584 
L 414.72 41.472 
L 57.6 41.472 
z
" style="fill:none;"/>
            </g>
            <g id="patch_3">
                <path clip-path="url(#pc120e7fab6)" d="M 175.4496 307.584
L 175.4496 197.14752 
L 177.854694 196.251429 
L 180.259788 195.355337 
L 182.664882 194.459246 
L 185.069976 193.563154 
L 187.475069 192.667063 
L 189.880163 191.770971 
L 192.285257 190.87488 
L 194.690351 189.978789 
L 197.095445 189.082697 
L 199.500539 188.186606 
L 201.905633 187.290514 
L 204.310727 186.394423 
L 206.71582 185.498331 
L 209.120914 184.60224 
L 211.526008 183.706149 
L 213.931102 182.810057 
L 216.336196 181.913966 
L 218.74129 181.017874 
L 221.146384 180.121783 
L 223.551478 179.225691 
L 225.956571 178.3296 
L 228.361665 177.433509 
L 230.766759 176.537417 
L 233.171853 175.641326 
L 235.576947 174.745234 
L 237.982041 173.849143 
L 240.387135 172.953051 
L 242.792229 172.05696 
L 245.197322 171.160869 
L 247.602416 170.264777 
L 250.00751 169.368686 
L 252.412604 168.472594 
L 254.817698 167.576503 
L 257.222792 166.680411 
L 259.627886 165.78432 
L 262.03298 164.888229 
L 264.438073 163.992137 
L 266.843167 163.096046 
L 269.248261 162.199954 
L 271.653355 161.303863 
L 274.058449 160.407771 
L 276.463543 159.51168 
L 278.868637 158.615589 
L 281.273731 157.719497 
L 283.678824 156.823406 
L 286.083918 155.927314 
L 288.489012 155.031223 
L 290.894106 154.135131 
L 293.2992 153.23904 
L 293.2992 307.584 
z
" style="fill:#e6e6e6;stroke:#808080;stroke-linejoin:miter;"/>
            </g>
            <g id="patch_4">
                <path clip-path="url(#pc120e7fab6)" d="M 293.2992 307.584
L 293.2992 153.23904 
L 295.777176 152.315794 
L 298.255151 151.392549 
L 300.733127 150.469303 
L 303.211102 149.546057 
L 305.689078 148.622811 
L 308.167053 147.699566 
L 310.645029 146.77632 
L 313.123004 145.853074 
L 315.60098 144.929829 
L 318.078955 144.006583 
L 320.556931 143.083337 
L 323.034906 142.160091 
L 325.512882 141.236846 
L 327.990857 140.3136 
L 330.468833 139.390354 
L 332.946808 138.467109 
L 335.424784 137.543863 
L 337.902759 136.620617 
L 340.380735 135.697371 
L 342.85871 134.774126 
L 345.336686 133.85088 
L 347.814661 132.927634 
L 350.292637 132.004389 
L 352.770612 131.081143 
L 355.248588 130.157897 
L 357.726563 129.234651 
L 360.204539 128.311406 
L 362.682514 127.38816 
L 365.16049 126.464914 
L 367.638465 125.541669 
L 370.116441 124.618423 
L 372.594416 123.695177 
L 375.072392 122.771931 
L 377.550367 121.848686 
L 380.028343 120.92544 
L 382.506318 120.002194 
L 384.984294 119.078949 
L 387.462269 118.155703 
L 389.940245 117.232457 
L 392.41822 116.309211 
L 394.896196 115.385966 
L 397.374171 114.46272 
L 399.852147 113.539474 
L 402.330122 112.616229 
L 404.808098 111.692983 
L 407.286073 110.769737 
L 409.764049 109.846491 
L 412.242024 108.923246 
L 414.72 108 
L 414.72 307.584 
z
" style="fill:#f2f2f2;stroke:#808080;stroke-linejoin:miter;"/>
            </g>
            <g id="matplotlib.axis_1">
                <g id="xtick_1">
                    <g id="line2d_1">
                        <defs>
                            <path d="M 0 0
L 0 3.5 
" id="m33821cd405" style="stroke:#000000;stroke-width:0.8;"/>
                        </defs>
                        <g>
                            <use style="stroke:#000000;stroke-width:0.8;" x="57.6" xlink:href="#m33821cd405"
                                 y="307.584"/>
                        </g>
                    </g>
                    <g id="text_1">
                        <!-- $0$ -->
                        <defs>
                            <path d="M 31.78125 66.40625
Q 24.171875 66.40625 20.328125 58.90625 
Q 16.5 51.421875 16.5 36.375 
Q 16.5 21.390625 20.328125 13.890625 
Q 24.171875 6.390625 31.78125 6.390625 
Q 39.453125 6.390625 43.28125 13.890625 
Q 47.125 21.390625 47.125 36.375 
Q 47.125 51.421875 43.28125 58.90625 
Q 39.453125 66.40625 31.78125 66.40625 
z
M 31.78125 74.21875 
Q 44.046875 74.21875 50.515625 64.515625 
Q 56.984375 54.828125 56.984375 36.375 
Q 56.984375 17.96875 50.515625 8.265625 
Q 44.046875 -1.421875 31.78125 -1.421875 
Q 19.53125 -1.421875 13.0625 8.265625 
Q 6.59375 17.96875 6.59375 36.375 
Q 6.59375 54.828125 13.0625 64.515625 
Q 19.53125 74.21875 31.78125 74.21875 
z
" id="DejaVuSans-48"/>
                        </defs>
                        <g transform="translate(54.4 322.182437)scale(0.1 -0.1)">
                            <use transform="translate(0 0.78125)" xlink:href="#DejaVuSans-48"/>
                        </g>
                    </g>
                </g>
                <g id="xtick_2">
                    <g id="line2d_2">
                        <g>
                            <use style="stroke:#000000;stroke-width:0.8;" x="175.4496" xlink:href="#m33821cd405"
                                 y="307.584"/>
                        </g>
                    </g>
                    <g id="text_2">
                        <!-- $x_1$ -->
                        <defs>
                            <path d="M 60.015625 54.6875
L 34.90625 27.875 
L 50.296875 0 
L 39.984375 0 
L 28.421875 21.6875 
L 8.296875 0 
L -2.59375 0 
L 24.3125 28.8125 
L 10.015625 54.6875 
L 20.3125 54.6875 
L 30.8125 34.90625 
L 49.125 54.6875 
z
" id="DejaVuSans-Oblique-120"/>
                            <path d="M 12.40625 8.296875
L 28.515625 8.296875 
L 28.515625 63.921875 
L 10.984375 60.40625 
L 10.984375 69.390625 
L 28.421875 72.90625 
L 38.28125 72.90625 
L 38.28125 8.296875 
L 54.390625 8.296875 
L 54.390625 0 
L 12.40625 0 
z
" id="DejaVuSans-49"/>
                        </defs>
                        <g transform="translate(170.0996 322.182437)scale(0.1 -0.1)">
                            <use transform="translate(0 0.3125)" xlink:href="#DejaVuSans-Oblique-120"/>
                            <use transform="translate(59.179688 -16.09375)scale(0.7)" xlink:href="#DejaVuSans-49"/>
                        </g>
                    </g>
                </g>
                <g id="xtick_3">
                    <g id="line2d_3">
                        <g>
                            <use style="stroke:#000000;stroke-width:0.8;" x="293.2992" xlink:href="#m33821cd405"
                                 y="307.584"/>
                        </g>
                    </g>
                    <g id="text_3">
                        <!-- $x_2$ -->
                        <defs>
                            <path d="M 19.1875 8.296875
L 53.609375 8.296875 
L 53.609375 0 
L 7.328125 0 
L 7.328125 8.296875 
Q 12.9375 14.109375 22.625 23.890625 
Q 32.328125 33.6875 34.8125 36.53125 
Q 39.546875 41.84375 41.421875 45.53125 
Q 43.3125 49.21875 43.3125 52.78125 
Q 43.3125 58.59375 39.234375 62.25 
Q 35.15625 65.921875 28.609375 65.921875 
Q 23.96875 65.921875 18.8125 64.3125 
Q 13.671875 62.703125 7.8125 59.421875 
L 7.8125 69.390625 
Q 13.765625 71.78125 18.9375 73 
Q 24.125 74.21875 28.421875 74.21875 
Q 39.75 74.21875 46.484375 68.546875 
Q 53.21875 62.890625 53.21875 53.421875 
Q 53.21875 48.921875 51.53125 44.890625 
Q 49.859375 40.875 45.40625 35.40625 
Q 44.1875 33.984375 37.640625 27.21875 
Q 31.109375 20.453125 19.1875 8.296875 
z
" id="DejaVuSans-50"/>
                        </defs>
                        <g transform="translate(287.9492 322.182437)scale(0.1 -0.1)">
                            <use transform="translate(0 0.3125)" xlink:href="#DejaVuSans-Oblique-120"/>
                            <use transform="translate(59.179688 -16.09375)scale(0.7)" xlink:href="#DejaVuSans-50"/>
                        </g>
                    </g>
                </g>
                <g id="xtick_4">
                    <g id="line2d_4">
                        <g>
                            <use style="stroke:#000000;stroke-width:0.8;" x="414.72" xlink:href="#m33821cd405"
                                 y="307.584"/>
                        </g>
                    </g>
                    <g id="text_4">
                        <!-- $1$ -->
                        <g transform="translate(411.52 322.182437)scale(0.1 -0.1)">
                            <use transform="translate(0 0.09375)" xlink:href="#DejaVuSans-49"/>
                        </g>
                    </g>
                </g>
            </g>
            <g id="matplotlib.axis_2">
                <g id="ytick_1">
                    <g id="line2d_5">
                        <defs>
                            <path d="M 0 0
L -3.5 0 
" id="m1222ef54dd" style="stroke:#000000;stroke-width:0.8;"/>
                        </defs>
                        <g>
                            <use style="stroke:#000000;stroke-width:0.8;" x="57.6" xlink:href="#m1222ef54dd"
                                 y="241.056"/>
                        </g>
                    </g>
                    <g id="text_5">
                        <!-- $K_0$ -->
                        <defs>
                            <path d="M 16.890625 72.90625
L 26.8125 72.90625 
L 20.796875 42.1875 
L 59.078125 72.90625 
L 72.21875 72.90625 
L 28.90625 38.09375 
L 60.59375 0 
L 48.578125 0 
L 19.484375 35.5 
L 12.59375 0 
L 2.6875 0 
z
" id="DejaVuSans-Oblique-75"/>
                        </defs>
                        <g transform="translate(39.3 244.855219)scale(0.1 -0.1)">
                            <use transform="translate(0 0.09375)" xlink:href="#DejaVuSans-Oblique-75"/>
                            <use transform="translate(65.576172 -16.3125)scale(0.7)" xlink:href="#DejaVuSans-48"/>
                        </g>
                    </g>
                </g>
                <g id="ytick_2">
                    <g id="line2d_6">
                        <g>
                            <use style="stroke:#000000;stroke-width:0.8;" x="57.6" xlink:href="#m1222ef54dd" y="108"/>
                        </g>
                    </g>
                    <g id="text_6">
                        <!-- $K_1$ -->
                        <g transform="translate(39.3 111.799219)scale(0.1 -0.1)">
                            <use transform="translate(0 0.09375)" xlink:href="#DejaVuSans-Oblique-75"/>
                            <use transform="translate(65.576172 -16.3125)scale(0.7)" xlink:href="#DejaVuSans-49"/>
                        </g>
                    </g>
                </g>
            </g>
            <g id="line2d_7">
                <path clip-path="url(#pc120e7fab6)" d="M 57.6 241.056
L 64.888163 238.340571 
L 72.176327 235.625143 
L 79.46449 232.909714 
L 86.752653 230.194286 
L 94.040816 227.478857 
L 101.32898 224.763429 
L 108.617143 222.048 
L 115.905306 219.332571 
L 123.193469 216.617143 
L 130.481633 213.901714 
L 137.769796 211.186286 
L 145.057959 208.470857 
L 152.346122 205.755429 
L 159.634286 203.04 
L 166.922449 200.324571 
L 174.210612 197.609143 
L 181.498776 194.893714 
L 188.786939 192.178286 
L 196.075102 189.462857 
L 203.363265 186.747429 
L 210.651429 184.032 
L 217.939592 181.316571 
L 225.227755 178.601143 
L 232.515918 175.885714 
L 239.804082 173.170286 
L 247.092245 170.454857 
L 254.380408 167.739429 
L 261.668571 165.024 
L 268.956735 162.308571 
L 276.244898 159.593143 
L 283.533061 156.877714 
L 290.821224 154.162286 
L 298.109388 151.446857 
L 305.397551 148.731429 
L 312.685714 146.016 
L 319.973878 143.300571 
L 327.262041 140.585143 
L 334.550204 137.869714 
L 341.838367 135.154286 
L 349.126531 132.438857 
L 356.414694 129.723429 
L 363.702857 127.008 
L 370.99102 124.292571 
L 378.279184 121.577143 
L 385.567347 118.861714 
L 392.85551 116.146286 
L 400.143673 113.430857 
L 407.431837 110.715429 
L 414.72 108 
" style="fill:none;stroke:#ff0000;stroke-linecap:square;stroke-width:2;"/>
            </g>
            <g id="line2d_8">
                <path clip-path="url(#pc120e7fab6)" d="M 57.6 241.056
L 64.888163 241.056 
L 72.176327 241.056 
L 79.46449 241.056 
L 86.752653 241.056 
L 94.040816 241.056 
L 101.32898 241.056 
L 108.617143 241.056 
L 115.905306 241.056 
L 123.193469 241.056 
L 130.481633 241.056 
L 137.769796 241.056 
L 145.057959 241.056 
L 152.346122 241.056 
L 159.634286 241.056 
L 166.922449 241.056 
L 174.210612 241.056 
L 181.498776 241.056 
L 188.786939 241.056 
L 196.075102 241.056 
L 203.363265 241.056 
L 210.651429 241.056 
L 217.939592 241.056 
L 225.227755 241.056 
L 232.515918 241.056 
L 239.804082 241.056 
L 247.092245 241.056 
L 254.380408 241.056 
L 261.668571 241.056 
L 268.956735 241.056 
L 276.244898 241.056 
L 283.533061 241.056 
L 290.821224 241.056 
L 298.109388 241.056 
L 305.397551 241.056 
L 312.685714 241.056 
L 319.973878 241.056 
L 327.262041 241.056 
L 334.550204 241.056 
L 341.838367 241.056 
L 349.126531 241.056 
L 356.414694 241.056 
L 363.702857 241.056 
L 370.99102 241.056 
L 378.279184 241.056 
L 385.567347 241.056 
L 392.85551 241.056 
L 400.143673 241.056 
L 407.431837 241.056 
L 414.72 241.056 
" style="fill:none;stroke:#ff0000;stroke-dasharray:3.7,1.6;stroke-dashoffset:0;"/>
            </g>
            <g id="line2d_9">
                <path clip-path="url(#pc120e7fab6)" d="M 57.6 108
L 64.888163 108 
L 72.176327 108 
L 79.46449 108 
L 86.752653 108 
L 94.040816 108 
L 101.32898 108 
L 108.617143 108 
L 115.905306 108 
L 123.193469 108 
L 130.481633 108 
L 137.769796 108 
L 145.057959 108 
L 152.346122 108 
L 159.634286 108 
L 166.922449 108 
L 174.210612 108 
L 181.498776 108 
L 188.786939 108 
L 196.075102 108 
L 203.363265 108 
L 210.651429 108 
L 217.939592 108 
L 225.227755 108 
L 232.515918 108 
L 239.804082 108 
L 247.092245 108 
L 254.380408 108 
L 261.668571 108 
L 268.956735 108 
L 276.244898 108 
L 283.533061 108 
L 290.821224 108 
L 298.109388 108 
L 305.397551 108 
L 312.685714 108 
L 319.973878 108 
L 327.262041 108 
L 334.550204 108 
L 341.838367 108 
L 349.126531 108 
L 356.414694 108 
L 363.702857 108 
L 370.99102 108 
L 378.279184 108 
L 385.567347 108 
L 392.85551 108 
L 400.143673 108 
L 407.431837 108 
L 414.72 108 
" style="fill:none;stroke:#ff0000;stroke-dasharray:3.7,1.6;stroke-dashoffset:0;"/>
            </g>
            <g id="patch_5">
                <path d="M 57.6 307.584
L 57.6 41.472 
" style="fill:none;stroke:#000000;stroke-linecap:square;stroke-linejoin:miter;stroke-width:0.8;"/>
            </g>
            <g id="patch_6">
                <path d="M 57.6 307.584
L 414.72 307.584 
" style="fill:none;stroke:#000000;stroke-linecap:square;stroke-linejoin:miter;stroke-width:0.8;"/>
            </g>
            <g id="text_7">
                <!-- $T_1$ -->
                <defs>
                    <path d="M 5.90625 72.90625
L 67.578125 72.90625 
L 66.015625 64.59375 
L 39.984375 64.59375 
L 27.484375 0 
L 17.578125 0 
L 30.078125 64.59375 
L 4.296875 64.59375 
z
" id="DejaVuSans-Oblique-84"/>
                </defs>
                <g transform="translate(105.6248 274.32)scale(0.2 -0.2)">
                    <use transform="translate(0 0.09375)" xlink:href="#DejaVuSans-Oblique-84"/>
                    <use transform="translate(61.083984 -16.3125)scale(0.7)" xlink:href="#DejaVuSans-49"/>
                </g>
            </g>
            <g id="text_8">
                <!-- $R$ -->
                <defs>
                    <path d="M 25.203125 64.796875
L 20.21875 38.921875 
L 32.90625 38.921875 
Q 40.375 38.921875 44.984375 43.046875 
Q 49.609375 47.171875 49.609375 53.8125 
Q 49.609375 59.125 46.5 61.953125 
Q 43.40625 64.796875 37.59375 64.796875 
z
M 43.3125 35.015625 
Q 46.4375 34.28125 48.515625 31.390625 
Q 50.59375 28.515625 53.328125 19.921875 
L 59.515625 0 
L 49.125 0 
L 43.40625 18.703125 
Q 41.21875 25.921875 38.328125 28.359375 
Q 35.453125 30.8125 29.5 30.8125 
L 18.609375 30.8125 
L 12.59375 0 
L 2.6875 0 
L 16.890625 72.90625 
L 39.109375 72.90625 
Q 49.21875 72.90625 54.609375 68.328125 
Q 60.015625 63.765625 60.015625 55.171875 
Q 60.015625 47.5625 55.421875 41.984375 
Q 50.828125 36.421875 43.3125 35.015625 
z
" id="DejaVuSans-Oblique-82"/>
                </defs>
                <g transform="translate(345.224 233.07264)scale(0.2 -0.2)">
                    <use transform="translate(0 0.09375)" xlink:href="#DejaVuSans-Oblique-82"/>
                </g>
            </g>
        </g>
    </g>
    <defs>
        <clipPath id="pc120e7fab6">
            <rect height="266.112" width="357.12" x="57.6" y="41.472"/>
        </clipPath>
    </defs>
</svg>
