<?xml version="1.0" encoding="utf-8" standalone="no"?>
<!DOCTYPE svg PUBLIC "-//W3C//DTD SVG 1.1//EN"
        "http://www.w3.org/Graphics/SVG/1.1/DTD/svg11.dtd">
<!-- Created with matplotlib (https://matplotlib.org/) -->
<svg height="345.6pt" version="1.1" viewBox="0 0 460.8 345.6" width="460.8pt" xmlns="http://www.w3.org/2000/svg"
     xmlns:xlink="http://www.w3.org/1999/xlink">
    <defs>
        <style type="text/css">
            *{stroke-linecap:butt;stroke-linejoin:round;}
        </style>
    </defs>
    <g id="figure_1">
        <g id="patch_1">
            <path d="M 0 345.6
L 460.8 345.6 
L 460.8 0 
L 0 0 
z
" style="fill:none;"/>
        </g>
        <g id="axes_1">
            <g id="patch_2">
                <path d="M 57.6 307.584
L 414.72 307.584 
L 414.72 41.472 
L 57.6 41.472 
z
" style="fill:none;"/>
            </g>
            <g id="patch_3">
                <path clip-path="url(#p98110b77b8)" d="M 236.16 307.584
L 236.16 174.528 
L 239.804082 174.528 
L 243.448163 174.528 
L 247.092245 174.528 
L 250.736327 174.528 
L 254.380408 174.528 
L 258.02449 174.528 
L 261.668571 174.528 
L 265.312653 174.528 
L 268.956735 174.528 
L 272.600816 174.528 
L 276.244898 174.528 
L 279.88898 174.528 
L 283.533061 174.528 
L 287.177143 174.528 
L 290.821224 174.528 
L 294.465306 174.528 
L 298.109388 174.528 
L 301.753469 174.528 
L 305.397551 174.528 
L 309.041633 174.528 
L 312.685714 174.528 
L 316.329796 174.528 
L 319.973878 174.528 
L 323.617959 174.528 
L 327.262041 174.528 
L 330.906122 174.528 
L 334.550204 174.528 
L 338.194286 174.528 
L 341.838367 174.528 
L 345.482449 174.528 
L 349.126531 174.528 
L 352.770612 174.528 
L 356.414694 174.528 
L 360.058776 174.528 
L 363.702857 174.528 
L 367.346939 174.528 
L 370.99102 174.528 
L 374.635102 174.528 
L 378.279184 174.528 
L 381.923265 174.528 
L 385.567347 174.528 
L 389.211429 174.528 
L 392.85551 174.528 
L 396.499592 174.528 
L 400.143673 174.528 
L 403.787755 174.528 
L 407.431837 174.528 
L 411.075918 174.528 
L 414.72 174.528 
L 414.72 307.584 
z
" style="fill:#e6e6e6;stroke:#808080;stroke-linejoin:miter;"/>
            </g>
            <g id="matplotlib.axis_1">
                <g id="xtick_1">
                    <g id="line2d_1">
                        <defs>
                            <path d="M 0 0
L 0 3.5 
" id="m663ff0c5b3" style="stroke:#000000;stroke-width:0.8;"/>
                        </defs>
                        <g>
                            <use style="stroke:#000000;stroke-width:0.8;" x="57.6" xlink:href="#m663ff0c5b3"
                                 y="307.584"/>
                        </g>
                    </g>
                    <g id="text_1">
                        <!-- $0$ -->
                        <defs>
                            <path d="M 31.78125 66.40625
Q 24.171875 66.40625 20.328125 58.90625 
Q 16.5 51.421875 16.5 36.375 
Q 16.5 21.390625 20.328125 13.890625 
Q 24.171875 6.390625 31.78125 6.390625 
Q 39.453125 6.390625 43.28125 13.890625 
Q 47.125 21.390625 47.125 36.375 
Q 47.125 51.421875 43.28125 58.90625 
Q 39.453125 66.40625 31.78125 66.40625 
z
M 31.78125 74.21875 
Q 44.046875 74.21875 50.515625 64.515625 
Q 56.984375 54.828125 56.984375 36.375 
Q 56.984375 17.96875 50.515625 8.265625 
Q 44.046875 -1.421875 31.78125 -1.421875 
Q 19.53125 -1.421875 13.0625 8.265625 
Q 6.59375 17.96875 6.59375 36.375 
Q 6.59375 54.828125 13.0625 64.515625 
Q 19.53125 74.21875 31.78125 74.21875 
z
" id="DejaVuSans-48"/>
                        </defs>
                        <g transform="translate(54.4 322.182437)scale(0.1 -0.1)">
                            <use transform="translate(0 0.78125)" xlink:href="#DejaVuSans-48"/>
                        </g>
                    </g>
                </g>
                <g id="xtick_2">
                    <g id="line2d_2">
                        <g>
                            <use style="stroke:#000000;stroke-width:0.8;" x="236.16" xlink:href="#m663ff0c5b3"
                                 y="307.584"/>
                        </g>
                    </g>
                    <g id="text_2">
                        <!-- $x_1$ -->
                        <defs>
                            <path d="M 60.015625 54.6875
L 34.90625 27.875 
L 50.296875 0 
L 39.984375 0 
L 28.421875 21.6875 
L 8.296875 0 
L -2.59375 0 
L 24.3125 28.8125 
L 10.015625 54.6875 
L 20.3125 54.6875 
L 30.8125 34.90625 
L 49.125 54.6875 
z
" id="DejaVuSans-Oblique-120"/>
                            <path d="M 12.40625 8.296875
L 28.515625 8.296875 
L 28.515625 63.921875 
L 10.984375 60.40625 
L 10.984375 69.390625 
L 28.421875 72.90625 
L 38.28125 72.90625 
L 38.28125 8.296875 
L 54.390625 8.296875 
L 54.390625 0 
L 12.40625 0 
z
" id="DejaVuSans-49"/>
                        </defs>
                        <g transform="translate(230.81 322.182437)scale(0.1 -0.1)">
                            <use transform="translate(0 0.3125)" xlink:href="#DejaVuSans-Oblique-120"/>
                            <use transform="translate(59.179688 -16.09375)scale(0.7)" xlink:href="#DejaVuSans-49"/>
                        </g>
                    </g>
                </g>
                <g id="xtick_3">
                    <g id="line2d_3">
                        <g>
                            <use style="stroke:#000000;stroke-width:0.8;" x="414.72" xlink:href="#m663ff0c5b3"
                                 y="307.584"/>
                        </g>
                    </g>
                    <g id="text_3">
                        <!-- $1$ -->
                        <g transform="translate(411.52 322.182437)scale(0.1 -0.1)">
                            <use transform="translate(0 0.09375)" xlink:href="#DejaVuSans-49"/>
                        </g>
                    </g>
                </g>
            </g>
            <g id="matplotlib.axis_2">
                <g id="ytick_1">
                    <g id="line2d_4">
                        <defs>
                            <path d="M 0 0
L -3.5 0 
" id="m855f8142dc" style="stroke:#000000;stroke-width:0.8;"/>
                        </defs>
                        <g>
                            <use style="stroke:#000000;stroke-width:0.8;" x="57.6" xlink:href="#m855f8142dc"
                                 y="174.528"/>
                        </g>
                    </g>
                    <g id="text_4">
                        <!-- $K$ -->
                        <defs>
                            <path d="M 16.890625 72.90625
L 26.8125 72.90625 
L 20.796875 42.1875 
L 59.078125 72.90625 
L 72.21875 72.90625 
L 28.90625 38.09375 
L 60.59375 0 
L 48.578125 0 
L 19.484375 35.5 
L 12.59375 0 
L 2.6875 0 
z
" id="DejaVuSans-Oblique-75"/>
                        </defs>
                        <g transform="translate(44 178.327219)scale(0.1 -0.1)">
                            <use transform="translate(0 0.09375)" xlink:href="#DejaVuSans-Oblique-75"/>
                        </g>
                    </g>
                </g>
            </g>
            <g id="line2d_5">
                <path clip-path="url(#p98110b77b8)" d="M 57.6 174.528
L 64.888163 174.528 
L 72.176327 174.528 
L 79.46449 174.528 
L 86.752653 174.528 
L 94.040816 174.528 
L 101.32898 174.528 
L 108.617143 174.528 
L 115.905306 174.528 
L 123.193469 174.528 
L 130.481633 174.528 
L 137.769796 174.528 
L 145.057959 174.528 
L 152.346122 174.528 
L 159.634286 174.528 
L 166.922449 174.528 
L 174.210612 174.528 
L 181.498776 174.528 
L 188.786939 174.528 
L 196.075102 174.528 
L 203.363265 174.528 
L 210.651429 174.528 
L 217.939592 174.528 
L 225.227755 174.528 
L 232.515918 174.528 
L 239.804082 174.528 
L 247.092245 174.528 
L 254.380408 174.528 
L 261.668571 174.528 
L 268.956735 174.528 
L 276.244898 174.528 
L 283.533061 174.528 
L 290.821224 174.528 
L 298.109388 174.528 
L 305.397551 174.528 
L 312.685714 174.528 
L 319.973878 174.528 
L 327.262041 174.528 
L 334.550204 174.528 
L 341.838367 174.528 
L 349.126531 174.528 
L 356.414694 174.528 
L 363.702857 174.528 
L 370.99102 174.528 
L 378.279184 174.528 
L 385.567347 174.528 
L 392.85551 174.528 
L 400.143673 174.528 
L 407.431837 174.528 
L 414.72 174.528 
" style="fill:none;stroke:#ff0000;stroke-linecap:square;stroke-width:2;"/>
            </g>
            <g id="patch_4">
                <path d="M 57.6 307.584
L 57.6 41.472 
" style="fill:none;stroke:#000000;stroke-linecap:square;stroke-linejoin:miter;stroke-width:0.8;"/>
            </g>
            <g id="patch_5">
                <path d="M 57.6 307.584
L 414.72 307.584 
" style="fill:none;stroke:#000000;stroke-linecap:square;stroke-linejoin:miter;stroke-width:0.8;"/>
            </g>
            <g id="text_5">
                <!-- $T_1$ -->
                <defs>
                    <path d="M 5.90625 72.90625
L 67.578125 72.90625 
L 66.015625 64.59375 
L 39.984375 64.59375 
L 27.484375 0 
L 17.578125 0 
L 30.078125 64.59375 
L 4.296875 64.59375 
z
" id="DejaVuSans-Oblique-84"/>
                </defs>
                <g transform="translate(135.98 241.056)scale(0.2 -0.2)">
                    <use transform="translate(0 0.09375)" xlink:href="#DejaVuSans-Oblique-84"/>
                    <use transform="translate(61.083984 -16.3125)scale(0.7)" xlink:href="#DejaVuSans-49"/>
                </g>
            </g>
            <g id="text_6">
                <!-- $R$ -->
                <defs>
                    <path d="M 25.203125 64.796875
L 20.21875 38.921875 
L 32.90625 38.921875 
Q 40.375 38.921875 44.984375 43.046875 
Q 49.609375 47.171875 49.609375 53.8125 
Q 49.609375 59.125 46.5 61.953125 
Q 43.40625 64.796875 37.59375 64.796875 
z
M 43.3125 35.015625 
Q 46.4375 34.28125 48.515625 31.390625 
Q 50.59375 28.515625 53.328125 19.921875 
L 59.515625 0 
L 49.125 0 
L 43.40625 18.703125 
Q 41.21875 25.921875 38.328125 28.359375 
Q 35.453125 30.8125 29.5 30.8125 
L 18.609375 30.8125 
L 12.59375 0 
L 2.6875 0 
L 16.890625 72.90625 
L 39.109375 72.90625 
Q 49.21875 72.90625 54.609375 68.328125 
Q 60.015625 63.765625 60.015625 55.171875 
Q 60.015625 47.5625 55.421875 41.984375 
Q 50.828125 36.421875 43.3125 35.015625 
z
" id="DejaVuSans-Oblique-82"/>
                </defs>
                <g transform="translate(318.44 241.056)scale(0.2 -0.2)">
                    <use transform="translate(0 0.09375)" xlink:href="#DejaVuSans-Oblique-82"/>
                </g>
            </g>
        </g>
    </g>
    <defs>
        <clipPath id="p98110b77b8">
            <rect height="266.112" width="357.12" x="57.6" y="41.472"/>
        </clipPath>
    </defs>
</svg>
