<?xml version="1.0" encoding="utf-8" standalone="no"?>
<!DOCTYPE svg PUBLIC "-//W3C//DTD SVG 1.1//EN"
        "http://www.w3.org/Graphics/SVG/1.1/DTD/svg11.dtd">
<!-- Created with matplotlib (https://matplotlib.org/) -->
<svg height="345.6pt" version="1.1" viewBox="0 0 460.8 345.6" width="460.8pt" xmlns="http://www.w3.org/2000/svg"
     xmlns:xlink="http://www.w3.org/1999/xlink">
    <defs>
        <style type="text/css">
            *{stroke-linecap:butt;stroke-linejoin:round;}
        </style>
    </defs>
    <g id="figure_1">
        <g id="patch_1">
            <path d="M 0 345.6
L 460.8 345.6 
L 460.8 0 
L 0 0 
z
" style="fill:none;"/>
        </g>
        <g id="axes_1">
            <g id="patch_2">
                <path d="M 57.6 162.432
L 414.72 162.432 
L 414.72 41.472 
L 57.6 41.472 
z
" style="fill:none;"/>
            </g>
            <g id="matplotlib.axis_1">
                <g id="xtick_1">
                    <g id="line2d_1">
                        <defs>
                            <path d="M 0 0
L 0 3.5 
" id="m432bdbb168" style="stroke:#000000;stroke-width:0.8;"/>
                        </defs>
                        <g>
                            <use style="stroke:#000000;stroke-width:0.8;" x="73.832727" xlink:href="#m432bdbb168"
                                 y="162.432"/>
                        </g>
                    </g>
                </g>
                <g id="xtick_2">
                    <g id="line2d_2">
                        <g>
                            <use style="stroke:#000000;stroke-width:0.8;" x="140.771809" xlink:href="#m432bdbb168"
                                 y="162.432"/>
                        </g>
                    </g>
                </g>
                <g id="xtick_3">
                    <g id="line2d_3">
                        <g>
                            <use style="stroke:#000000;stroke-width:0.8;" x="207.71089" xlink:href="#m432bdbb168"
                                 y="162.432"/>
                        </g>
                    </g>
                </g>
                <g id="xtick_4">
                    <g id="line2d_4">
                        <g>
                            <use style="stroke:#000000;stroke-width:0.8;" x="274.649972" xlink:href="#m432bdbb168"
                                 y="162.432"/>
                        </g>
                    </g>
                </g>
                <g id="xtick_5">
                    <g id="line2d_5">
                        <g>
                            <use style="stroke:#000000;stroke-width:0.8;" x="341.589053" xlink:href="#m432bdbb168"
                                 y="162.432"/>
                        </g>
                    </g>
                </g>
                <g id="xtick_6">
                    <g id="line2d_6">
                        <g>
                            <use style="stroke:#000000;stroke-width:0.8;" x="408.528135" xlink:href="#m432bdbb168"
                                 y="162.432"/>
                        </g>
                    </g>
                </g>
            </g>
            <g id="matplotlib.axis_2">
                <g id="ytick_1">
                    <g id="line2d_7">
                        <defs>
                            <path d="M 0 0
L -3.5 0 
" id="m1e3b151022" style="stroke:#000000;stroke-width:0.8;"/>
                        </defs>
                        <g>
                            <use style="stroke:#000000;stroke-width:0.8;" x="57.6" xlink:href="#m1e3b151022"
                                 y="156.933818"/>
                        </g>
                    </g>
                    <g id="text_1">
                        <!-- 0 -->
                        <defs>
                            <path d="M 31.78125 66.40625
Q 24.171875 66.40625 20.328125 58.90625 
Q 16.5 51.421875 16.5 36.375 
Q 16.5 21.390625 20.328125 13.890625 
Q 24.171875 6.390625 31.78125 6.390625 
Q 39.453125 6.390625 43.28125 13.890625 
Q 47.125 21.390625 47.125 36.375 
Q 47.125 51.421875 43.28125 58.90625 
Q 39.453125 66.40625 31.78125 66.40625 
z
M 31.78125 74.21875 
Q 44.046875 74.21875 50.515625 64.515625 
Q 56.984375 54.828125 56.984375 36.375 
Q 56.984375 17.96875 50.515625 8.265625 
Q 44.046875 -1.421875 31.78125 -1.421875 
Q 19.53125 -1.421875 13.0625 8.265625 
Q 6.59375 17.96875 6.59375 36.375 
Q 6.59375 54.828125 13.0625 64.515625 
Q 19.53125 74.21875 31.78125 74.21875 
z
" id="DejaVuSans-48"/>
                        </defs>
                        <g transform="translate(44.2375 160.733037)scale(0.1 -0.1)">
                            <use xlink:href="#DejaVuSans-48"/>
                        </g>
                    </g>
                </g>
                <g id="ytick_2">
                    <g id="line2d_8">
                        <g>
                            <use style="stroke:#000000;stroke-width:0.8;" x="57.6" xlink:href="#m1e3b151022"
                                 y="134.400286"/>
                        </g>
                    </g>
                    <g id="text_2">
                        <!-- 25 -->
                        <defs>
                            <path d="M 19.1875 8.296875
L 53.609375 8.296875 
L 53.609375 0 
L 7.328125 0 
L 7.328125 8.296875 
Q 12.9375 14.109375 22.625 23.890625 
Q 32.328125 33.6875 34.8125 36.53125 
Q 39.546875 41.84375 41.421875 45.53125 
Q 43.3125 49.21875 43.3125 52.78125 
Q 43.3125 58.59375 39.234375 62.25 
Q 35.15625 65.921875 28.609375 65.921875 
Q 23.96875 65.921875 18.8125 64.3125 
Q 13.671875 62.703125 7.8125 59.421875 
L 7.8125 69.390625 
Q 13.765625 71.78125 18.9375 73 
Q 24.125 74.21875 28.421875 74.21875 
Q 39.75 74.21875 46.484375 68.546875 
Q 53.21875 62.890625 53.21875 53.421875 
Q 53.21875 48.921875 51.53125 44.890625 
Q 49.859375 40.875 45.40625 35.40625 
Q 44.1875 33.984375 37.640625 27.21875 
Q 31.109375 20.453125 19.1875 8.296875 
z
" id="DejaVuSans-50"/>
                            <path d="M 10.796875 72.90625
L 49.515625 72.90625 
L 49.515625 64.59375 
L 19.828125 64.59375 
L 19.828125 46.734375 
Q 21.96875 47.46875 24.109375 47.828125 
Q 26.265625 48.1875 28.421875 48.1875 
Q 40.625 48.1875 47.75 41.5 
Q 54.890625 34.8125 54.890625 23.390625 
Q 54.890625 11.625 47.5625 5.09375 
Q 40.234375 -1.421875 26.90625 -1.421875 
Q 22.3125 -1.421875 17.546875 -0.640625 
Q 12.796875 0.140625 7.71875 1.703125 
L 7.71875 11.625 
Q 12.109375 9.234375 16.796875 8.0625 
Q 21.484375 6.890625 26.703125 6.890625 
Q 35.15625 6.890625 40.078125 11.328125 
Q 45.015625 15.765625 45.015625 23.390625 
Q 45.015625 31 40.078125 35.4375 
Q 35.15625 39.890625 26.703125 39.890625 
Q 22.75 39.890625 18.8125 39.015625 
Q 14.890625 38.140625 10.796875 36.28125 
z
" id="DejaVuSans-53"/>
                        </defs>
                        <g transform="translate(37.875 138.199505)scale(0.1 -0.1)">
                            <use xlink:href="#DejaVuSans-50"/>
                            <use x="63.623047" xlink:href="#DejaVuSans-53"/>
                        </g>
                    </g>
                </g>
                <g id="ytick_3">
                    <g id="line2d_9">
                        <g>
                            <use style="stroke:#000000;stroke-width:0.8;" x="57.6" xlink:href="#m1e3b151022"
                                 y="111.866754"/>
                        </g>
                    </g>
                    <g id="text_3">
                        <!-- 50 -->
                        <g transform="translate(37.875 115.665973)scale(0.1 -0.1)">
                            <use xlink:href="#DejaVuSans-53"/>
                            <use x="63.623047" xlink:href="#DejaVuSans-48"/>
                        </g>
                    </g>
                </g>
                <g id="ytick_4">
                    <g id="line2d_10">
                        <g>
                            <use style="stroke:#000000;stroke-width:0.8;" x="57.6" xlink:href="#m1e3b151022"
                                 y="89.333222"/>
                        </g>
                    </g>
                    <g id="text_4">
                        <!-- 75 -->
                        <defs>
                            <path d="M 8.203125 72.90625
L 55.078125 72.90625 
L 55.078125 68.703125 
L 28.609375 0 
L 18.3125 0 
L 43.21875 64.59375 
L 8.203125 64.59375 
z
" id="DejaVuSans-55"/>
                        </defs>
                        <g transform="translate(37.875 93.132441)scale(0.1 -0.1)">
                            <use xlink:href="#DejaVuSans-55"/>
                            <use x="63.623047" xlink:href="#DejaVuSans-53"/>
                        </g>
                    </g>
                </g>
                <g id="ytick_5">
                    <g id="line2d_11">
                        <g>
                            <use style="stroke:#000000;stroke-width:0.8;" x="57.6" xlink:href="#m1e3b151022"
                                 y="66.79969"/>
                        </g>
                    </g>
                    <g id="text_5">
                        <!-- 100 -->
                        <defs>
                            <path d="M 12.40625 8.296875
L 28.515625 8.296875 
L 28.515625 63.921875 
L 10.984375 60.40625 
L 10.984375 69.390625 
L 28.421875 72.90625 
L 38.28125 72.90625 
L 38.28125 8.296875 
L 54.390625 8.296875 
L 54.390625 0 
L 12.40625 0 
z
" id="DejaVuSans-49"/>
                        </defs>
                        <g transform="translate(31.5125 70.598909)scale(0.1 -0.1)">
                            <use xlink:href="#DejaVuSans-49"/>
                            <use x="63.623047" xlink:href="#DejaVuSans-48"/>
                            <use x="127.246094" xlink:href="#DejaVuSans-48"/>
                        </g>
                    </g>
                </g>
                <g id="ytick_6">
                    <g id="line2d_12">
                        <g>
                            <use style="stroke:#000000;stroke-width:0.8;" x="57.6" xlink:href="#m1e3b151022"
                                 y="44.266158"/>
                        </g>
                    </g>
                    <g id="text_6">
                        <!-- 125 -->
                        <g transform="translate(31.5125 48.065377)scale(0.1 -0.1)">
                            <use xlink:href="#DejaVuSans-49"/>
                            <use x="63.623047" xlink:href="#DejaVuSans-50"/>
                            <use x="127.246094" xlink:href="#DejaVuSans-53"/>
                        </g>
                    </g>
                </g>
            </g>
            <g id="line2d_13">
                <path clip-path="url(#p1228940a2f)" d="M 73.832727 151.52577
L 77.179681 150.624429 
L 80.526635 149.723088 
L 83.87359 147.019064 
L 87.220544 147.920405 
L 90.567498 150.624429 
L 93.914452 147.920405 
L 97.261406 147.019064 
L 100.60836 147.920405 
L 103.955314 146.117723 
L 107.302268 144.31504 
L 110.649222 142.512358 
L 113.996176 138.906993 
L 117.34313 138.005651 
L 120.690084 138.005651 
L 124.037038 134.400286 
L 127.383993 133.498945 
L 130.730947 133.498945 
L 134.077901 132.597604 
L 137.424855 131.696262 
L 140.771809 119.978826 
L 144.118763 108.261389 
L 147.465717 114.570778 
L 150.812671 134.400286 
L 154.159625 125.386873 
L 157.506579 120.880167 
L 160.853533 115.472119 
L 164.200487 118.176143 
L 167.547441 123.584191 
L 170.894396 108.261389 
L 174.24135 102.853341 
L 177.588304 107.360048 
L 180.935258 105.557365 
L 184.282212 118.176143 
L 187.629166 118.176143 
L 190.97612 124.485532 
L 194.323074 119.077484 
L 197.670028 101.952 
L 201.016982 100.149317 
L 204.363936 108.261389 
L 207.71089 83.023833 
L 211.057844 79.418468 
L 214.404799 81.221151 
L 217.751753 79.418468 
L 221.098707 74.911762 
L 224.445661 75.813103 
L 227.792615 109.16273 
L 231.139569 114.570778 
L 234.486523 113.669437 
L 237.833477 112.768095 
L 241.180431 111.866754 
L 244.527385 115.472119 
L 247.874339 120.880167 
L 251.221293 122.682849 
L 254.568247 124.485532 
L 257.915201 122.682849 
L 261.262156 125.386873 
L 264.60911 119.978826 
L 267.956064 117.274802 
L 271.303018 106.458706 
L 274.649972 96.543952 
L 277.996926 81.221151 
L 281.34388 78.517127 
L 284.690834 85.727857 
L 288.037788 79.418468 
L 291.384742 68.602373 
L 294.731696 74.911762 
L 298.07865 80.319809 
L 301.425604 93.839928 
L 304.772559 92.938587 
L 308.119513 94.74127 
L 311.466467 91.135905 
L 314.813421 90.234563 
L 318.160375 88.431881 
L 321.507329 87.530539 
L 324.854283 87.530539 
L 328.201237 86.629198 
L 331.548191 93.839928 
L 334.895145 86.629198 
L 338.242099 88.431881 
L 341.589053 85.727857 
L 344.936007 71.306396 
L 348.282962 67.701031 
L 351.629916 67.701031 
L 354.97687 65.898349 
L 358.323824 64.997007 
L 361.670778 60.490301 
L 365.017732 60.490301 
L 368.364686 58.687618 
L 371.71164 57.786277 
L 375.058594 56.884936 
L 378.405548 55.983595 
L 381.752502 53.279571 
L 385.099456 51.476888 
L 388.44641 47.871523 
L 391.793365 46.970182 
L 395.140319 138.906993 
L 398.487273 156.933818 
" style="fill:none;stroke:#1f77b4;stroke-linecap:square;stroke-width:1.5;"/>
                <defs>
                    <path d="M 0 3
C 0.795609 3 1.55874 2.683901 2.12132 2.12132 
C 2.683901 1.55874 3 0.795609 3 0 
C 3 -0.795609 2.683901 -1.55874 2.12132 -2.12132 
C 1.55874 -2.683901 0.795609 -3 0 -3 
C -0.795609 -3 -1.55874 -2.683901 -2.12132 -2.12132 
C -2.683901 -1.55874 -3 -0.795609 -3 0 
C -3 0.795609 -2.683901 1.55874 -2.12132 2.12132 
C -1.55874 2.683901 -0.795609 3 0 3 
z
" id="m485cdeb123" style="stroke:#1f77b4;"/>
                </defs>
                <g clip-path="url(#p1228940a2f)">
                    <use style="fill:#1f77b4;stroke:#1f77b4;" x="73.832727" xlink:href="#m485cdeb123" y="151.52577"/>
                    <use style="fill:#1f77b4;stroke:#1f77b4;" x="77.179681" xlink:href="#m485cdeb123" y="150.624429"/>
                    <use style="fill:#1f77b4;stroke:#1f77b4;" x="80.526635" xlink:href="#m485cdeb123" y="149.723088"/>
                    <use style="fill:#1f77b4;stroke:#1f77b4;" x="83.87359" xlink:href="#m485cdeb123" y="147.019064"/>
                    <use style="fill:#1f77b4;stroke:#1f77b4;" x="87.220544" xlink:href="#m485cdeb123" y="147.920405"/>
                    <use style="fill:#1f77b4;stroke:#1f77b4;" x="90.567498" xlink:href="#m485cdeb123" y="150.624429"/>
                    <use style="fill:#1f77b4;stroke:#1f77b4;" x="93.914452" xlink:href="#m485cdeb123" y="147.920405"/>
                    <use style="fill:#1f77b4;stroke:#1f77b4;" x="97.261406" xlink:href="#m485cdeb123" y="147.019064"/>
                    <use style="fill:#1f77b4;stroke:#1f77b4;" x="100.60836" xlink:href="#m485cdeb123" y="147.920405"/>
                    <use style="fill:#1f77b4;stroke:#1f77b4;" x="103.955314" xlink:href="#m485cdeb123" y="146.117723"/>
                    <use style="fill:#1f77b4;stroke:#1f77b4;" x="107.302268" xlink:href="#m485cdeb123" y="144.31504"/>
                    <use style="fill:#1f77b4;stroke:#1f77b4;" x="110.649222" xlink:href="#m485cdeb123" y="142.512358"/>
                    <use style="fill:#1f77b4;stroke:#1f77b4;" x="113.996176" xlink:href="#m485cdeb123" y="138.906993"/>
                    <use style="fill:#1f77b4;stroke:#1f77b4;" x="117.34313" xlink:href="#m485cdeb123" y="138.005651"/>
                    <use style="fill:#1f77b4;stroke:#1f77b4;" x="120.690084" xlink:href="#m485cdeb123" y="138.005651"/>
                    <use style="fill:#1f77b4;stroke:#1f77b4;" x="124.037038" xlink:href="#m485cdeb123" y="134.400286"/>
                    <use style="fill:#1f77b4;stroke:#1f77b4;" x="127.383993" xlink:href="#m485cdeb123" y="133.498945"/>
                    <use style="fill:#1f77b4;stroke:#1f77b4;" x="130.730947" xlink:href="#m485cdeb123" y="133.498945"/>
                    <use style="fill:#1f77b4;stroke:#1f77b4;" x="134.077901" xlink:href="#m485cdeb123" y="132.597604"/>
                    <use style="fill:#1f77b4;stroke:#1f77b4;" x="137.424855" xlink:href="#m485cdeb123" y="131.696262"/>
                    <use style="fill:#1f77b4;stroke:#1f77b4;" x="140.771809" xlink:href="#m485cdeb123" y="119.978826"/>
                    <use style="fill:#1f77b4;stroke:#1f77b4;" x="144.118763" xlink:href="#m485cdeb123" y="108.261389"/>
                    <use style="fill:#1f77b4;stroke:#1f77b4;" x="147.465717" xlink:href="#m485cdeb123" y="114.570778"/>
                    <use style="fill:#1f77b4;stroke:#1f77b4;" x="150.812671" xlink:href="#m485cdeb123" y="134.400286"/>
                    <use style="fill:#1f77b4;stroke:#1f77b4;" x="154.159625" xlink:href="#m485cdeb123" y="125.386873"/>
                    <use style="fill:#1f77b4;stroke:#1f77b4;" x="157.506579" xlink:href="#m485cdeb123" y="120.880167"/>
                    <use style="fill:#1f77b4;stroke:#1f77b4;" x="160.853533" xlink:href="#m485cdeb123" y="115.472119"/>
                    <use style="fill:#1f77b4;stroke:#1f77b4;" x="164.200487" xlink:href="#m485cdeb123" y="118.176143"/>
                    <use style="fill:#1f77b4;stroke:#1f77b4;" x="167.547441" xlink:href="#m485cdeb123" y="123.584191"/>
                    <use style="fill:#1f77b4;stroke:#1f77b4;" x="170.894396" xlink:href="#m485cdeb123" y="108.261389"/>
                    <use style="fill:#1f77b4;stroke:#1f77b4;" x="174.24135" xlink:href="#m485cdeb123" y="102.853341"/>
                    <use style="fill:#1f77b4;stroke:#1f77b4;" x="177.588304" xlink:href="#m485cdeb123" y="107.360048"/>
                    <use style="fill:#1f77b4;stroke:#1f77b4;" x="180.935258" xlink:href="#m485cdeb123" y="105.557365"/>
                    <use style="fill:#1f77b4;stroke:#1f77b4;" x="184.282212" xlink:href="#m485cdeb123" y="118.176143"/>
                    <use style="fill:#1f77b4;stroke:#1f77b4;" x="187.629166" xlink:href="#m485cdeb123" y="118.176143"/>
                    <use style="fill:#1f77b4;stroke:#1f77b4;" x="190.97612" xlink:href="#m485cdeb123" y="124.485532"/>
                    <use style="fill:#1f77b4;stroke:#1f77b4;" x="194.323074" xlink:href="#m485cdeb123" y="119.077484"/>
                    <use style="fill:#1f77b4;stroke:#1f77b4;" x="197.670028" xlink:href="#m485cdeb123" y="101.952"/>
                    <use style="fill:#1f77b4;stroke:#1f77b4;" x="201.016982" xlink:href="#m485cdeb123" y="100.149317"/>
                    <use style="fill:#1f77b4;stroke:#1f77b4;" x="204.363936" xlink:href="#m485cdeb123" y="108.261389"/>
                    <use style="fill:#1f77b4;stroke:#1f77b4;" x="207.71089" xlink:href="#m485cdeb123" y="83.023833"/>
                    <use style="fill:#1f77b4;stroke:#1f77b4;" x="211.057844" xlink:href="#m485cdeb123" y="79.418468"/>
                    <use style="fill:#1f77b4;stroke:#1f77b4;" x="214.404799" xlink:href="#m485cdeb123" y="81.221151"/>
                    <use style="fill:#1f77b4;stroke:#1f77b4;" x="217.751753" xlink:href="#m485cdeb123" y="79.418468"/>
                    <use style="fill:#1f77b4;stroke:#1f77b4;" x="221.098707" xlink:href="#m485cdeb123" y="74.911762"/>
                    <use style="fill:#1f77b4;stroke:#1f77b4;" x="224.445661" xlink:href="#m485cdeb123" y="75.813103"/>
                    <use style="fill:#1f77b4;stroke:#1f77b4;" x="227.792615" xlink:href="#m485cdeb123" y="109.16273"/>
                    <use style="fill:#1f77b4;stroke:#1f77b4;" x="231.139569" xlink:href="#m485cdeb123" y="114.570778"/>
                    <use style="fill:#1f77b4;stroke:#1f77b4;" x="234.486523" xlink:href="#m485cdeb123" y="113.669437"/>
                    <use style="fill:#1f77b4;stroke:#1f77b4;" x="237.833477" xlink:href="#m485cdeb123" y="112.768095"/>
                    <use style="fill:#1f77b4;stroke:#1f77b4;" x="241.180431" xlink:href="#m485cdeb123" y="111.866754"/>
                    <use style="fill:#1f77b4;stroke:#1f77b4;" x="244.527385" xlink:href="#m485cdeb123" y="115.472119"/>
                    <use style="fill:#1f77b4;stroke:#1f77b4;" x="247.874339" xlink:href="#m485cdeb123" y="120.880167"/>
                    <use style="fill:#1f77b4;stroke:#1f77b4;" x="251.221293" xlink:href="#m485cdeb123" y="122.682849"/>
                    <use style="fill:#1f77b4;stroke:#1f77b4;" x="254.568247" xlink:href="#m485cdeb123" y="124.485532"/>
                    <use style="fill:#1f77b4;stroke:#1f77b4;" x="257.915201" xlink:href="#m485cdeb123" y="122.682849"/>
                    <use style="fill:#1f77b4;stroke:#1f77b4;" x="261.262156" xlink:href="#m485cdeb123" y="125.386873"/>
                    <use style="fill:#1f77b4;stroke:#1f77b4;" x="264.60911" xlink:href="#m485cdeb123" y="119.978826"/>
                    <use style="fill:#1f77b4;stroke:#1f77b4;" x="267.956064" xlink:href="#m485cdeb123" y="117.274802"/>
                    <use style="fill:#1f77b4;stroke:#1f77b4;" x="271.303018" xlink:href="#m485cdeb123" y="106.458706"/>
                    <use style="fill:#1f77b4;stroke:#1f77b4;" x="274.649972" xlink:href="#m485cdeb123" y="96.543952"/>
                    <use style="fill:#1f77b4;stroke:#1f77b4;" x="277.996926" xlink:href="#m485cdeb123" y="81.221151"/>
                    <use style="fill:#1f77b4;stroke:#1f77b4;" x="281.34388" xlink:href="#m485cdeb123" y="78.517127"/>
                    <use style="fill:#1f77b4;stroke:#1f77b4;" x="284.690834" xlink:href="#m485cdeb123" y="85.727857"/>
                    <use style="fill:#1f77b4;stroke:#1f77b4;" x="288.037788" xlink:href="#m485cdeb123" y="79.418468"/>
                    <use style="fill:#1f77b4;stroke:#1f77b4;" x="291.384742" xlink:href="#m485cdeb123" y="68.602373"/>
                    <use style="fill:#1f77b4;stroke:#1f77b4;" x="294.731696" xlink:href="#m485cdeb123" y="74.911762"/>
                    <use style="fill:#1f77b4;stroke:#1f77b4;" x="298.07865" xlink:href="#m485cdeb123" y="80.319809"/>
                    <use style="fill:#1f77b4;stroke:#1f77b4;" x="301.425604" xlink:href="#m485cdeb123" y="93.839928"/>
                    <use style="fill:#1f77b4;stroke:#1f77b4;" x="304.772559" xlink:href="#m485cdeb123" y="92.938587"/>
                    <use style="fill:#1f77b4;stroke:#1f77b4;" x="308.119513" xlink:href="#m485cdeb123" y="94.74127"/>
                    <use style="fill:#1f77b4;stroke:#1f77b4;" x="311.466467" xlink:href="#m485cdeb123" y="91.135905"/>
                    <use style="fill:#1f77b4;stroke:#1f77b4;" x="314.813421" xlink:href="#m485cdeb123" y="90.234563"/>
                    <use style="fill:#1f77b4;stroke:#1f77b4;" x="318.160375" xlink:href="#m485cdeb123" y="88.431881"/>
                    <use style="fill:#1f77b4;stroke:#1f77b4;" x="321.507329" xlink:href="#m485cdeb123" y="87.530539"/>
                    <use style="fill:#1f77b4;stroke:#1f77b4;" x="324.854283" xlink:href="#m485cdeb123" y="87.530539"/>
                    <use style="fill:#1f77b4;stroke:#1f77b4;" x="328.201237" xlink:href="#m485cdeb123" y="86.629198"/>
                    <use style="fill:#1f77b4;stroke:#1f77b4;" x="331.548191" xlink:href="#m485cdeb123" y="93.839928"/>
                    <use style="fill:#1f77b4;stroke:#1f77b4;" x="334.895145" xlink:href="#m485cdeb123" y="86.629198"/>
                    <use style="fill:#1f77b4;stroke:#1f77b4;" x="338.242099" xlink:href="#m485cdeb123" y="88.431881"/>
                    <use style="fill:#1f77b4;stroke:#1f77b4;" x="341.589053" xlink:href="#m485cdeb123" y="85.727857"/>
                    <use style="fill:#1f77b4;stroke:#1f77b4;" x="344.936007" xlink:href="#m485cdeb123" y="71.306396"/>
                    <use style="fill:#1f77b4;stroke:#1f77b4;" x="348.282962" xlink:href="#m485cdeb123" y="67.701031"/>
                    <use style="fill:#1f77b4;stroke:#1f77b4;" x="351.629916" xlink:href="#m485cdeb123" y="67.701031"/>
                    <use style="fill:#1f77b4;stroke:#1f77b4;" x="354.97687" xlink:href="#m485cdeb123" y="65.898349"/>
                    <use style="fill:#1f77b4;stroke:#1f77b4;" x="358.323824" xlink:href="#m485cdeb123" y="64.997007"/>
                    <use style="fill:#1f77b4;stroke:#1f77b4;" x="361.670778" xlink:href="#m485cdeb123" y="60.490301"/>
                    <use style="fill:#1f77b4;stroke:#1f77b4;" x="365.017732" xlink:href="#m485cdeb123" y="60.490301"/>
                    <use style="fill:#1f77b4;stroke:#1f77b4;" x="368.364686" xlink:href="#m485cdeb123" y="58.687618"/>
                    <use style="fill:#1f77b4;stroke:#1f77b4;" x="371.71164" xlink:href="#m485cdeb123" y="57.786277"/>
                    <use style="fill:#1f77b4;stroke:#1f77b4;" x="375.058594" xlink:href="#m485cdeb123" y="56.884936"/>
                    <use style="fill:#1f77b4;stroke:#1f77b4;" x="378.405548" xlink:href="#m485cdeb123" y="55.983595"/>
                    <use style="fill:#1f77b4;stroke:#1f77b4;" x="381.752502" xlink:href="#m485cdeb123" y="53.279571"/>
                    <use style="fill:#1f77b4;stroke:#1f77b4;" x="385.099456" xlink:href="#m485cdeb123" y="51.476888"/>
                    <use style="fill:#1f77b4;stroke:#1f77b4;" x="388.44641" xlink:href="#m485cdeb123" y="47.871523"/>
                    <use style="fill:#1f77b4;stroke:#1f77b4;" x="391.793365" xlink:href="#m485cdeb123" y="46.970182"/>
                    <use style="fill:#1f77b4;stroke:#1f77b4;" x="395.140319" xlink:href="#m485cdeb123" y="138.906993"/>
                    <use style="fill:#1f77b4;stroke:#1f77b4;" x="398.487273" xlink:href="#m485cdeb123" y="156.933818"/>
                </g>
            </g>
            <g id="patch_3">
                <path d="M 57.6 162.432
L 57.6 41.472 
" style="fill:none;stroke:#000000;stroke-linecap:square;stroke-linejoin:miter;stroke-width:0.8;"/>
            </g>
            <g id="patch_4">
                <path d="M 414.72 162.432
L 414.72 41.472 
" style="fill:none;stroke:#000000;stroke-linecap:square;stroke-linejoin:miter;stroke-width:0.8;"/>
            </g>
            <g id="patch_5">
                <path d="M 57.6 162.432
L 414.72 162.432 
" style="fill:none;stroke:#000000;stroke-linecap:square;stroke-linejoin:miter;stroke-width:0.8;"/>
            </g>
            <g id="patch_6">
                <path d="M 57.6 41.472
L 414.72 41.472 
" style="fill:none;stroke:#000000;stroke-linecap:square;stroke-linejoin:miter;stroke-width:0.8;"/>
            </g>
            <g id="legend_1">
                <g id="patch_7">
                    <path d="M 64.6 64.150125
L 143.117188 64.150125 
Q 145.117188 64.150125 145.117188 62.150125 
L 145.117188 48.472 
Q 145.117188 46.472 143.117188 46.472 
L 64.6 46.472 
Q 62.6 46.472 62.6 48.472 
L 62.6 62.150125 
Q 62.6 64.150125 64.6 64.150125 
z
" style="fill:#ffffff;opacity:0.8;stroke:#cccccc;stroke-linejoin:miter;"/>
                </g>
                <g id="line2d_14">
                    <path d="M 66.6 54.570437
L 86.6 54.570437 
" style="fill:none;stroke:#1f77b4;stroke-linecap:square;stroke-width:1.5;"/>
                </g>
                <g id="line2d_15">
                    <g>
                        <use style="fill:#1f77b4;stroke:#1f77b4;" x="76.6" xlink:href="#m485cdeb123" y="54.570437"/>
                    </g>
                </g>
                <g id="text_7">
                    <!-- time cost -->
                    <defs>
                        <path d="M 18.3125 70.21875
L 18.3125 54.6875 
L 36.8125 54.6875 
L 36.8125 47.703125 
L 18.3125 47.703125 
L 18.3125 18.015625 
Q 18.3125 11.328125 20.140625 9.421875 
Q 21.96875 7.515625 27.59375 7.515625 
L 36.8125 7.515625 
L 36.8125 0 
L 27.59375 0 
Q 17.1875 0 13.234375 3.875 
Q 9.28125 7.765625 9.28125 18.015625 
L 9.28125 47.703125 
L 2.6875 47.703125 
L 2.6875 54.6875 
L 9.28125 54.6875 
L 9.28125 70.21875 
z
" id="DejaVuSans-116"/>
                        <path d="M 9.421875 54.6875
L 18.40625 54.6875 
L 18.40625 0 
L 9.421875 0 
z
M 9.421875 75.984375 
L 18.40625 75.984375 
L 18.40625 64.59375 
L 9.421875 64.59375 
z
" id="DejaVuSans-105"/>
                        <path d="M 52 44.1875
Q 55.375 50.25 60.0625 53.125 
Q 64.75 56 71.09375 56 
Q 79.640625 56 84.28125 50.015625 
Q 88.921875 44.046875 88.921875 33.015625 
L 88.921875 0 
L 79.890625 0 
L 79.890625 32.71875 
Q 79.890625 40.578125 77.09375 44.375 
Q 74.3125 48.1875 68.609375 48.1875 
Q 61.625 48.1875 57.5625 43.546875 
Q 53.515625 38.921875 53.515625 30.90625 
L 53.515625 0 
L 44.484375 0 
L 44.484375 32.71875 
Q 44.484375 40.625 41.703125 44.40625 
Q 38.921875 48.1875 33.109375 48.1875 
Q 26.21875 48.1875 22.15625 43.53125 
Q 18.109375 38.875 18.109375 30.90625 
L 18.109375 0 
L 9.078125 0 
L 9.078125 54.6875 
L 18.109375 54.6875 
L 18.109375 46.1875 
Q 21.1875 51.21875 25.484375 53.609375 
Q 29.78125 56 35.6875 56 
Q 41.65625 56 45.828125 52.96875 
Q 50 49.953125 52 44.1875 
z
" id="DejaVuSans-109"/>
                        <path d="M 56.203125 29.59375
L 56.203125 25.203125 
L 14.890625 25.203125 
Q 15.484375 15.921875 20.484375 11.0625 
Q 25.484375 6.203125 34.421875 6.203125 
Q 39.59375 6.203125 44.453125 7.46875 
Q 49.3125 8.734375 54.109375 11.28125 
L 54.109375 2.78125 
Q 49.265625 0.734375 44.1875 -0.34375 
Q 39.109375 -1.421875 33.890625 -1.421875 
Q 20.796875 -1.421875 13.15625 6.1875 
Q 5.515625 13.8125 5.515625 26.8125 
Q 5.515625 40.234375 12.765625 48.109375 
Q 20.015625 56 32.328125 56 
Q 43.359375 56 49.78125 48.890625 
Q 56.203125 41.796875 56.203125 29.59375 
z
M 47.21875 32.234375 
Q 47.125 39.59375 43.09375 43.984375 
Q 39.0625 48.390625 32.421875 48.390625 
Q 24.90625 48.390625 20.390625 44.140625 
Q 15.875 39.890625 15.1875 32.171875 
z
" id="DejaVuSans-101"/>
                        <path id="DejaVuSans-32"/>
                        <path d="M 48.78125 52.59375
L 48.78125 44.1875 
Q 44.96875 46.296875 41.140625 47.34375 
Q 37.3125 48.390625 33.40625 48.390625 
Q 24.65625 48.390625 19.8125 42.84375 
Q 14.984375 37.3125 14.984375 27.296875 
Q 14.984375 17.28125 19.8125 11.734375 
Q 24.65625 6.203125 33.40625 6.203125 
Q 37.3125 6.203125 41.140625 7.25 
Q 44.96875 8.296875 48.78125 10.40625 
L 48.78125 2.09375 
Q 45.015625 0.34375 40.984375 -0.53125 
Q 36.96875 -1.421875 32.421875 -1.421875 
Q 20.0625 -1.421875 12.78125 6.34375 
Q 5.515625 14.109375 5.515625 27.296875 
Q 5.515625 40.671875 12.859375 48.328125 
Q 20.21875 56 33.015625 56 
Q 37.15625 56 41.109375 55.140625 
Q 45.0625 54.296875 48.78125 52.59375 
z
" id="DejaVuSans-99"/>
                        <path d="M 30.609375 48.390625
Q 23.390625 48.390625 19.1875 42.75 
Q 14.984375 37.109375 14.984375 27.296875 
Q 14.984375 17.484375 19.15625 11.84375 
Q 23.34375 6.203125 30.609375 6.203125 
Q 37.796875 6.203125 41.984375 11.859375 
Q 46.1875 17.53125 46.1875 27.296875 
Q 46.1875 37.015625 41.984375 42.703125 
Q 37.796875 48.390625 30.609375 48.390625 
z
M 30.609375 56 
Q 42.328125 56 49.015625 48.375 
Q 55.71875 40.765625 55.71875 27.296875 
Q 55.71875 13.875 49.015625 6.21875 
Q 42.328125 -1.421875 30.609375 -1.421875 
Q 18.84375 -1.421875 12.171875 6.21875 
Q 5.515625 13.875 5.515625 27.296875 
Q 5.515625 40.765625 12.171875 48.375 
Q 18.84375 56 30.609375 56 
z
" id="DejaVuSans-111"/>
                        <path d="M 44.28125 53.078125
L 44.28125 44.578125 
Q 40.484375 46.53125 36.375 47.5 
Q 32.28125 48.484375 27.875 48.484375 
Q 21.1875 48.484375 17.84375 46.4375 
Q 14.5 44.390625 14.5 40.28125 
Q 14.5 37.15625 16.890625 35.375 
Q 19.28125 33.59375 26.515625 31.984375 
L 29.59375 31.296875 
Q 39.15625 29.25 43.1875 25.515625 
Q 47.21875 21.78125 47.21875 15.09375 
Q 47.21875 7.46875 41.1875 3.015625 
Q 35.15625 -1.421875 24.609375 -1.421875 
Q 20.21875 -1.421875 15.453125 -0.5625 
Q 10.6875 0.296875 5.421875 2 
L 5.421875 11.28125 
Q 10.40625 8.6875 15.234375 7.390625 
Q 20.0625 6.109375 24.8125 6.109375 
Q 31.15625 6.109375 34.5625 8.28125 
Q 37.984375 10.453125 37.984375 14.40625 
Q 37.984375 18.0625 35.515625 20.015625 
Q 33.0625 21.96875 24.703125 23.78125 
L 21.578125 24.515625 
Q 13.234375 26.265625 9.515625 29.90625 
Q 5.8125 33.546875 5.8125 39.890625 
Q 5.8125 47.609375 11.28125 51.796875 
Q 16.75 56 26.8125 56 
Q 31.78125 56 36.171875 55.265625 
Q 40.578125 54.546875 44.28125 53.078125 
z
" id="DejaVuSans-115"/>
                    </defs>
                    <g transform="translate(94.6 58.070437)scale(0.1 -0.1)">
                        <use xlink:href="#DejaVuSans-116"/>
                        <use x="39.208984" xlink:href="#DejaVuSans-105"/>
                        <use x="66.992188" xlink:href="#DejaVuSans-109"/>
                        <use x="164.404297" xlink:href="#DejaVuSans-101"/>
                        <use x="225.927734" xlink:href="#DejaVuSans-32"/>
                        <use x="257.714844" xlink:href="#DejaVuSans-99"/>
                        <use x="312.695312" xlink:href="#DejaVuSans-111"/>
                        <use x="373.876953" xlink:href="#DejaVuSans-115"/>
                        <use x="425.976562" xlink:href="#DejaVuSans-116"/>
                    </g>
                </g>
            </g>
        </g>
        <g id="axes_2">
            <g id="patch_8">
                <path d="M 57.6 307.584
L 414.72 307.584 
L 414.72 186.624 
L 57.6 186.624 
z
" style="fill:none;"/>
            </g>
            <g id="matplotlib.axis_3">
                <g id="xtick_7">
                    <g id="line2d_16">
                        <g>
                            <use style="stroke:#000000;stroke-width:0.8;" x="73.832727" xlink:href="#m432bdbb168"
                                 y="307.584"/>
                        </g>
                    </g>
                    <g id="text_8">
                        <!-- 0 -->
                        <g transform="translate(70.651477 322.182437)scale(0.1 -0.1)">
                            <use xlink:href="#DejaVuSans-48"/>
                        </g>
                    </g>
                </g>
                <g id="xtick_8">
                    <g id="line2d_17">
                        <g>
                            <use style="stroke:#000000;stroke-width:0.8;" x="140.771809" xlink:href="#m432bdbb168"
                                 y="307.584"/>
                        </g>
                    </g>
                    <g id="text_9">
                        <!-- 20 -->
                        <g transform="translate(134.409309 322.182437)scale(0.1 -0.1)">
                            <use xlink:href="#DejaVuSans-50"/>
                            <use x="63.623047" xlink:href="#DejaVuSans-48"/>
                        </g>
                    </g>
                </g>
                <g id="xtick_9">
                    <g id="line2d_18">
                        <g>
                            <use style="stroke:#000000;stroke-width:0.8;" x="207.71089" xlink:href="#m432bdbb168"
                                 y="307.584"/>
                        </g>
                    </g>
                    <g id="text_10">
                        <!-- 40 -->
                        <defs>
                            <path d="M 37.796875 64.3125
L 12.890625 25.390625 
L 37.796875 25.390625 
z
M 35.203125 72.90625 
L 47.609375 72.90625 
L 47.609375 25.390625 
L 58.015625 25.390625 
L 58.015625 17.1875 
L 47.609375 17.1875 
L 47.609375 0 
L 37.796875 0 
L 37.796875 17.1875 
L 4.890625 17.1875 
L 4.890625 26.703125 
z
" id="DejaVuSans-52"/>
                        </defs>
                        <g transform="translate(201.34839 322.182437)scale(0.1 -0.1)">
                            <use xlink:href="#DejaVuSans-52"/>
                            <use x="63.623047" xlink:href="#DejaVuSans-48"/>
                        </g>
                    </g>
                </g>
                <g id="xtick_10">
                    <g id="line2d_19">
                        <g>
                            <use style="stroke:#000000;stroke-width:0.8;" x="274.649972" xlink:href="#m432bdbb168"
                                 y="307.584"/>
                        </g>
                    </g>
                    <g id="text_11">
                        <!-- 60 -->
                        <defs>
                            <path d="M 33.015625 40.375
Q 26.375 40.375 22.484375 35.828125 
Q 18.609375 31.296875 18.609375 23.390625 
Q 18.609375 15.53125 22.484375 10.953125 
Q 26.375 6.390625 33.015625 6.390625 
Q 39.65625 6.390625 43.53125 10.953125 
Q 47.40625 15.53125 47.40625 23.390625 
Q 47.40625 31.296875 43.53125 35.828125 
Q 39.65625 40.375 33.015625 40.375 
z
M 52.59375 71.296875 
L 52.59375 62.3125 
Q 48.875 64.0625 45.09375 64.984375 
Q 41.3125 65.921875 37.59375 65.921875 
Q 27.828125 65.921875 22.671875 59.328125 
Q 17.53125 52.734375 16.796875 39.40625 
Q 19.671875 43.65625 24.015625 45.921875 
Q 28.375 48.1875 33.59375 48.1875 
Q 44.578125 48.1875 50.953125 41.515625 
Q 57.328125 34.859375 57.328125 23.390625 
Q 57.328125 12.15625 50.6875 5.359375 
Q 44.046875 -1.421875 33.015625 -1.421875 
Q 20.359375 -1.421875 13.671875 8.265625 
Q 6.984375 17.96875 6.984375 36.375 
Q 6.984375 53.65625 15.1875 63.9375 
Q 23.390625 74.21875 37.203125 74.21875 
Q 40.921875 74.21875 44.703125 73.484375 
Q 48.484375 72.75 52.59375 71.296875 
z
" id="DejaVuSans-54"/>
                        </defs>
                        <g transform="translate(268.287472 322.182437)scale(0.1 -0.1)">
                            <use xlink:href="#DejaVuSans-54"/>
                            <use x="63.623047" xlink:href="#DejaVuSans-48"/>
                        </g>
                    </g>
                </g>
                <g id="xtick_11">
                    <g id="line2d_20">
                        <g>
                            <use style="stroke:#000000;stroke-width:0.8;" x="341.589053" xlink:href="#m432bdbb168"
                                 y="307.584"/>
                        </g>
                    </g>
                    <g id="text_12">
                        <!-- 80 -->
                        <defs>
                            <path d="M 31.78125 34.625
Q 24.75 34.625 20.71875 30.859375 
Q 16.703125 27.09375 16.703125 20.515625 
Q 16.703125 13.921875 20.71875 10.15625 
Q 24.75 6.390625 31.78125 6.390625 
Q 38.8125 6.390625 42.859375 10.171875 
Q 46.921875 13.96875 46.921875 20.515625 
Q 46.921875 27.09375 42.890625 30.859375 
Q 38.875 34.625 31.78125 34.625 
z
M 21.921875 38.8125 
Q 15.578125 40.375 12.03125 44.71875 
Q 8.5 49.078125 8.5 55.328125 
Q 8.5 64.0625 14.71875 69.140625 
Q 20.953125 74.21875 31.78125 74.21875 
Q 42.671875 74.21875 48.875 69.140625 
Q 55.078125 64.0625 55.078125 55.328125 
Q 55.078125 49.078125 51.53125 44.71875 
Q 48 40.375 41.703125 38.8125 
Q 48.828125 37.15625 52.796875 32.3125 
Q 56.78125 27.484375 56.78125 20.515625 
Q 56.78125 9.90625 50.3125 4.234375 
Q 43.84375 -1.421875 31.78125 -1.421875 
Q 19.734375 -1.421875 13.25 4.234375 
Q 6.78125 9.90625 6.78125 20.515625 
Q 6.78125 27.484375 10.78125 32.3125 
Q 14.796875 37.15625 21.921875 38.8125 
z
M 18.3125 54.390625 
Q 18.3125 48.734375 21.84375 45.5625 
Q 25.390625 42.390625 31.78125 42.390625 
Q 38.140625 42.390625 41.71875 45.5625 
Q 45.3125 48.734375 45.3125 54.390625 
Q 45.3125 60.0625 41.71875 63.234375 
Q 38.140625 66.40625 31.78125 66.40625 
Q 25.390625 66.40625 21.84375 63.234375 
Q 18.3125 60.0625 18.3125 54.390625 
z
" id="DejaVuSans-56"/>
                        </defs>
                        <g transform="translate(335.226553 322.182437)scale(0.1 -0.1)">
                            <use xlink:href="#DejaVuSans-56"/>
                            <use x="63.623047" xlink:href="#DejaVuSans-48"/>
                        </g>
                    </g>
                </g>
                <g id="xtick_12">
                    <g id="line2d_21">
                        <g>
                            <use style="stroke:#000000;stroke-width:0.8;" x="408.528135" xlink:href="#m432bdbb168"
                                 y="307.584"/>
                        </g>
                    </g>
                    <g id="text_13">
                        <!-- 100 -->
                        <g transform="translate(398.984385 322.182437)scale(0.1 -0.1)">
                            <use xlink:href="#DejaVuSans-49"/>
                            <use x="63.623047" xlink:href="#DejaVuSans-48"/>
                            <use x="127.246094" xlink:href="#DejaVuSans-48"/>
                        </g>
                    </g>
                </g>
            </g>
            <g id="matplotlib.axis_4">
                <g id="ytick_7">
                    <g id="line2d_22">
                        <g>
                            <use style="stroke:#000000;stroke-width:0.8;" x="57.6" xlink:href="#m1e3b151022"
                                 y="304.080579"/>
                        </g>
                    </g>
                    <g id="text_14">
                        <!-- 0 -->
                        <g transform="translate(44.2375 307.879798)scale(0.1 -0.1)">
                            <use xlink:href="#DejaVuSans-48"/>
                        </g>
                    </g>
                </g>
                <g id="ytick_8">
                    <g id="line2d_23">
                        <g>
                            <use style="stroke:#000000;stroke-width:0.8;" x="57.6" xlink:href="#m1e3b151022"
                                 y="265.347351"/>
                        </g>
                    </g>
                    <g id="text_15">
                        <!-- 2000 -->
                        <g transform="translate(25.15 269.146569)scale(0.1 -0.1)">
                            <use xlink:href="#DejaVuSans-50"/>
                            <use x="63.623047" xlink:href="#DejaVuSans-48"/>
                            <use x="127.246094" xlink:href="#DejaVuSans-48"/>
                            <use x="190.869141" xlink:href="#DejaVuSans-48"/>
                        </g>
                    </g>
                </g>
                <g id="ytick_9">
                    <g id="line2d_24">
                        <g>
                            <use style="stroke:#000000;stroke-width:0.8;" x="57.6" xlink:href="#m1e3b151022"
                                 y="226.614122"/>
                        </g>
                    </g>
                    <g id="text_16">
                        <!-- 4000 -->
                        <g transform="translate(25.15 230.413341)scale(0.1 -0.1)">
                            <use xlink:href="#DejaVuSans-52"/>
                            <use x="63.623047" xlink:href="#DejaVuSans-48"/>
                            <use x="127.246094" xlink:href="#DejaVuSans-48"/>
                            <use x="190.869141" xlink:href="#DejaVuSans-48"/>
                        </g>
                    </g>
                </g>
                <g id="ytick_10">
                    <g id="line2d_25">
                        <g>
                            <use style="stroke:#000000;stroke-width:0.8;" x="57.6" xlink:href="#m1e3b151022"
                                 y="187.880893"/>
                        </g>
                    </g>
                    <g id="text_17">
                        <!-- 6000 -->
                        <g transform="translate(25.15 191.680112)scale(0.1 -0.1)">
                            <use xlink:href="#DejaVuSans-54"/>
                            <use x="63.623047" xlink:href="#DejaVuSans-48"/>
                            <use x="127.246094" xlink:href="#DejaVuSans-48"/>
                            <use x="190.869141" xlink:href="#DejaVuSans-48"/>
                        </g>
                    </g>
                </g>
            </g>
            <g id="line2d_26">
                <path clip-path="url(#p0c7a142aa9)" d="M 73.832727 292.576811
L 77.179681 291.744046 
L 80.526635 290.930648 
L 83.87359 289.20702 
L 87.220544 288.626021 
L 90.567498 289.213475 
L 93.914452 288.89992 
L 97.261406 288.490455 
L 100.60836 288.41514 
L 103.955314 288.045023 
L 107.302268 287.471067 
L 110.649222 286.753915 
L 113.996176 285.676337 
L 117.34313 284.689065 
L 120.690084 283.887656 
L 124.037038 282.830562 
L 127.383993 281.860238 
L 130.730947 281.053675 
L 134.077901 280.302454 
L 137.424855 279.601179 
L 140.771809 278.071216 
L 144.118763 275.859901 
L 147.465717 274.385665 
L 150.812671 274.459343 
L 154.159625 273.984861 
L 157.506579 273.323416 
L 160.853533 272.454181 
L 164.200487 271.860066 
L 167.547441 271.648846 
L 170.894396 270.73127 
L 174.24135 269.681724 
L 177.588304 268.97617 
L 180.935258 268.299292 
L 184.282212 268.253482 
L 187.629166 268.257876 
L 190.97612 268.549298 
L 194.323074 268.664799 
L 197.670028 268.216668 
L 201.016982 267.791517 
L 204.363936 267.710078 
L 207.71089 266.903293 
L 211.057844 266.103571 
L 214.404799 265.469856 
L 217.751753 264.889594 
L 221.098707 264.290794 
L 224.445661 263.817388 
L 227.792615 264.246338 
L 231.139569 264.826066 
L 234.486523 265.399127 
L 237.833477 265.967082 
L 241.180431 266.531372 
L 244.527385 267.18271 
L 247.874339 267.946131 
L 251.221293 268.742964 
L 254.568247 269.569273 
L 257.915201 270.360537 
L 261.262156 271.19369 
L 264.60911 271.937342 
L 267.956064 272.642328 
L 271.303018 273.197285 
L 274.649972 273.633404 
L 277.996926 273.895524 
L 281.34388 274.166845 
L 284.690834 274.56949 
L 288.037788 274.933825 
L 291.384742 275.217869 
L 294.731696 275.616859 
L 298.07865 276.110631 
L 301.425604 276.76832 
L 304.772559 277.437651 
L 308.119513 278.142682 
L 311.466467 278.835122 
L 314.813421 279.540161 
L 318.160375 280.251269 
L 321.507329 280.976209 
L 324.854283 281.721314 
L 328.201237 282.480014 
L 331.548191 283.301692 
L 334.895145 284.095704 
L 338.242099 284.917315 
L 341.589053 285.741352 
L 344.936007 286.514588 
L 348.282962 287.297658 
L 351.629916 288.107734 
L 354.97687 288.937026 
L 358.323824 289.789369 
L 361.670778 290.65306 
L 365.017732 291.544218 
L 368.364686 292.457129 
L 371.71164 293.394512 
L 375.058594 294.356198 
L 378.405548 295.342026 
L 381.752502 296.348927 
L 385.099456 297.379319 
L 388.44641 298.431644 
L 391.793365 299.510058 
L 395.140319 300.676048 
L 398.487273 301.834052 
" style="fill:none;stroke:#800080;stroke-linecap:square;stroke-width:1.5;"/>
            </g>
            <g id="line2d_27">
                <path clip-path="url(#p0c7a142aa9)" d="M 73.832727 192.122182
L 77.179681 192.257748 
L 80.526635 192.412681 
L 83.87359 192.625714 
L 87.220544 192.81938 
L 90.567498 192.954946 
L 93.914452 193.148612 
L 97.261406 193.361645 
L 100.60836 193.555311 
L 103.955314 193.787711 
L 107.302268 194.058843 
L 110.649222 194.368709 
L 113.996176 194.756041 
L 117.34313 195.16274 
L 120.690084 195.569439 
L 124.037038 196.053605 
L 127.383993 196.557137 
L 130.730947 197.060668 
L 134.077901 197.583567 
L 137.424855 198.125832 
L 140.771809 198.919863 
L 144.118763 199.965661 
L 147.465717 200.875892 
L 150.812671 201.360057 
L 154.159625 202.037888 
L 157.506579 202.812553 
L 160.853533 203.703417 
L 164.200487 204.536182 
L 167.547441 205.252746 
L 170.894396 206.298544 
L 174.24135 207.46054 
L 177.588304 208.525704 
L 180.935258 209.629601 
L 184.282212 210.462366 
L 187.629166 211.29513 
L 190.97612 211.992328 
L 194.323074 212.805726 
L 197.670028 213.987089 
L 201.016982 215.207186 
L 204.363936 216.252983 
L 207.71089 217.841046 
L 211.057844 219.506575 
L 214.404799 221.13337 
L 217.751753 222.798899 
L 221.098707 224.561261 
L 224.445661 226.304256 
L 227.792615 227.330687 
L 231.139569 228.240918 
L 234.486523 229.170515 
L 237.833477 230.119479 
L 241.180431 231.08781 
L 244.527385 231.978674 
L 247.874339 232.753339 
L 251.221293 233.48927 
L 254.568247 234.186468 
L 257.915201 234.9224 
L 261.262156 235.600231 
L 264.60911 236.394262 
L 267.956064 237.246393 
L 271.303018 238.330924 
L 274.649972 239.628487 
L 277.996926 241.255282 
L 281.34388 242.940178 
L 284.690834 244.47014 
L 288.037788 246.135669 
L 291.384742 248.033597 
L 294.731696 249.795959 
L 298.07865 251.442122 
L 301.425604 252.797785 
L 304.772559 254.172814 
L 308.119513 255.509111 
L 311.466467 256.922873 
L 314.813421 258.356003 
L 318.160375 259.827866 
L 321.507329 261.319095 
L 324.854283 262.810324 
L 328.201237 264.32092 
L 331.548191 265.676583 
L 334.895145 267.187179 
L 338.242099 268.659042 
L 341.589053 270.189004 
L 344.936007 272.028833 
L 348.282962 273.946128 
L 351.629916 275.863422 
L 354.97687 277.81945 
L 358.323824 279.794845 
L 361.670778 281.867073 
L 365.017732 283.939301 
L 368.364686 286.050261 
L 371.71164 288.180589 
L 375.058594 290.330283 
L 378.405548 292.499344 
L 381.752502 294.726505 
L 385.099456 296.992399 
L 388.44641 299.335759 
L 391.793365 301.698486 
L 395.140319 302.085818 
L 398.487273 302.085818 
" style="fill:none;stroke:#ff0000;stroke-linecap:square;stroke-width:1.5;"/>
            </g>
            <g id="patch_9">
                <path d="M 57.6 307.584
L 57.6 186.624 
" style="fill:none;stroke:#000000;stroke-linecap:square;stroke-linejoin:miter;stroke-width:0.8;"/>
            </g>
            <g id="patch_10">
                <path d="M 414.72 307.584
L 414.72 186.624 
" style="fill:none;stroke:#000000;stroke-linecap:square;stroke-linejoin:miter;stroke-width:0.8;"/>
            </g>
            <g id="patch_11">
                <path d="M 57.6 307.584
L 414.72 307.584 
" style="fill:none;stroke:#000000;stroke-linecap:square;stroke-linejoin:miter;stroke-width:0.8;"/>
            </g>
            <g id="patch_12">
                <path d="M 57.6 186.624
L 414.72 186.624 
" style="fill:none;stroke:#000000;stroke-linecap:square;stroke-linejoin:miter;stroke-width:0.8;"/>
            </g>
            <g id="legend_2">
                <g id="patch_13">
                    <path d="M 324.999688 223.98025
L 407.72 223.98025 
Q 409.72 223.98025 409.72 221.98025 
L 409.72 193.624 
Q 409.72 191.624 407.72 191.624 
L 324.999688 191.624 
Q 322.999688 191.624 322.999688 193.624 
L 322.999688 221.98025 
Q 322.999688 223.98025 324.999688 223.98025 
z
" style="fill:#ffffff;opacity:0.8;stroke:#cccccc;stroke-linejoin:miter;"/>
                </g>
                <g id="line2d_28">
                    <path d="M 326.999688 199.722437
L 346.999688 199.722437 
" style="fill:none;stroke:#800080;stroke-linecap:square;stroke-width:1.5;"/>
                </g>
                <g id="line2d_29"/>
                <g id="text_18">
                    <!-- linear ETA -->
                    <defs>
                        <path d="M 9.421875 75.984375
L 18.40625 75.984375 
L 18.40625 0 
L 9.421875 0 
z
" id="DejaVuSans-108"/>
                        <path d="M 54.890625 33.015625
L 54.890625 0 
L 45.90625 0 
L 45.90625 32.71875 
Q 45.90625 40.484375 42.875 44.328125 
Q 39.84375 48.1875 33.796875 48.1875 
Q 26.515625 48.1875 22.3125 43.546875 
Q 18.109375 38.921875 18.109375 30.90625 
L 18.109375 0 
L 9.078125 0 
L 9.078125 54.6875 
L 18.109375 54.6875 
L 18.109375 46.1875 
Q 21.34375 51.125 25.703125 53.5625 
Q 30.078125 56 35.796875 56 
Q 45.21875 56 50.046875 50.171875 
Q 54.890625 44.34375 54.890625 33.015625 
z
" id="DejaVuSans-110"/>
                        <path d="M 34.28125 27.484375
Q 23.390625 27.484375 19.1875 25 
Q 14.984375 22.515625 14.984375 16.5 
Q 14.984375 11.71875 18.140625 8.90625 
Q 21.296875 6.109375 26.703125 6.109375 
Q 34.1875 6.109375 38.703125 11.40625 
Q 43.21875 16.703125 43.21875 25.484375 
L 43.21875 27.484375 
z
M 52.203125 31.203125 
L 52.203125 0 
L 43.21875 0 
L 43.21875 8.296875 
Q 40.140625 3.328125 35.546875 0.953125 
Q 30.953125 -1.421875 24.3125 -1.421875 
Q 15.921875 -1.421875 10.953125 3.296875 
Q 6 8.015625 6 15.921875 
Q 6 25.140625 12.171875 29.828125 
Q 18.359375 34.515625 30.609375 34.515625 
L 43.21875 34.515625 
L 43.21875 35.40625 
Q 43.21875 41.609375 39.140625 45 
Q 35.0625 48.390625 27.6875 48.390625 
Q 23 48.390625 18.546875 47.265625 
Q 14.109375 46.140625 10.015625 43.890625 
L 10.015625 52.203125 
Q 14.9375 54.109375 19.578125 55.046875 
Q 24.21875 56 28.609375 56 
Q 40.484375 56 46.34375 49.84375 
Q 52.203125 43.703125 52.203125 31.203125 
z
" id="DejaVuSans-97"/>
                        <path d="M 41.109375 46.296875
Q 39.59375 47.171875 37.8125 47.578125 
Q 36.03125 48 33.890625 48 
Q 26.265625 48 22.1875 43.046875 
Q 18.109375 38.09375 18.109375 28.8125 
L 18.109375 0 
L 9.078125 0 
L 9.078125 54.6875 
L 18.109375 54.6875 
L 18.109375 46.1875 
Q 20.953125 51.171875 25.484375 53.578125 
Q 30.03125 56 36.53125 56 
Q 37.453125 56 38.578125 55.875 
Q 39.703125 55.765625 41.0625 55.515625 
z
" id="DejaVuSans-114"/>
                        <path d="M 9.8125 72.90625
L 55.90625 72.90625 
L 55.90625 64.59375 
L 19.671875 64.59375 
L 19.671875 43.015625 
L 54.390625 43.015625 
L 54.390625 34.71875 
L 19.671875 34.71875 
L 19.671875 8.296875 
L 56.78125 8.296875 
L 56.78125 0 
L 9.8125 0 
z
" id="DejaVuSans-69"/>
                        <path d="M -0.296875 72.90625
L 61.375 72.90625 
L 61.375 64.59375 
L 35.5 64.59375 
L 35.5 0 
L 25.59375 0 
L 25.59375 64.59375 
L -0.296875 64.59375 
z
" id="DejaVuSans-84"/>
                        <path d="M 34.1875 63.1875
L 20.796875 26.90625 
L 47.609375 26.90625 
z
M 28.609375 72.90625 
L 39.796875 72.90625 
L 67.578125 0 
L 57.328125 0 
L 50.6875 18.703125 
L 17.828125 18.703125 
L 11.1875 0 
L 0.78125 0 
z
" id="DejaVuSans-65"/>
                    </defs>
                    <g transform="translate(354.999688 203.222437)scale(0.1 -0.1)">
                        <use xlink:href="#DejaVuSans-108"/>
                        <use x="27.783203" xlink:href="#DejaVuSans-105"/>
                        <use x="55.566406" xlink:href="#DejaVuSans-110"/>
                        <use x="118.945312" xlink:href="#DejaVuSans-101"/>
                        <use x="180.46875" xlink:href="#DejaVuSans-97"/>
                        <use x="241.748047" xlink:href="#DejaVuSans-114"/>
                        <use x="282.861328" xlink:href="#DejaVuSans-32"/>
                        <use x="314.648438" xlink:href="#DejaVuSans-69"/>
                        <use x="377.832031" xlink:href="#DejaVuSans-84"/>
                        <use x="438.806641" xlink:href="#DejaVuSans-65"/>
                    </g>
                </g>
                <g id="line2d_30">
                    <path d="M 326.999688 214.400562
L 346.999688 214.400562 
" style="fill:none;stroke:#ff0000;stroke-linecap:square;stroke-width:1.5;"/>
                </g>
                <g id="line2d_31"/>
                <g id="text_19">
                    <!-- remaining -->
                    <defs>
                        <path d="M 45.40625 27.984375
Q 45.40625 37.75 41.375 43.109375 
Q 37.359375 48.484375 30.078125 48.484375 
Q 22.859375 48.484375 18.828125 43.109375 
Q 14.796875 37.75 14.796875 27.984375 
Q 14.796875 18.265625 18.828125 12.890625 
Q 22.859375 7.515625 30.078125 7.515625 
Q 37.359375 7.515625 41.375 12.890625 
Q 45.40625 18.265625 45.40625 27.984375 
z
M 54.390625 6.78125 
Q 54.390625 -7.171875 48.1875 -13.984375 
Q 42 -20.796875 29.203125 -20.796875 
Q 24.46875 -20.796875 20.265625 -20.09375 
Q 16.0625 -19.390625 12.109375 -17.921875 
L 12.109375 -9.1875 
Q 16.0625 -11.328125 19.921875 -12.34375 
Q 23.78125 -13.375 27.78125 -13.375 
Q 36.625 -13.375 41.015625 -8.765625 
Q 45.40625 -4.15625 45.40625 5.171875 
L 45.40625 9.625 
Q 42.625 4.78125 38.28125 2.390625 
Q 33.9375 0 27.875 0 
Q 17.828125 0 11.671875 7.65625 
Q 5.515625 15.328125 5.515625 27.984375 
Q 5.515625 40.671875 11.671875 48.328125 
Q 17.828125 56 27.875 56 
Q 33.9375 56 38.28125 53.609375 
Q 42.625 51.21875 45.40625 46.390625 
L 45.40625 54.6875 
L 54.390625 54.6875 
z
" id="DejaVuSans-103"/>
                    </defs>
                    <g transform="translate(354.999688 217.900562)scale(0.1 -0.1)">
                        <use xlink:href="#DejaVuSans-114"/>
                        <use x="41.082031" xlink:href="#DejaVuSans-101"/>
                        <use x="102.605469" xlink:href="#DejaVuSans-109"/>
                        <use x="200.017578" xlink:href="#DejaVuSans-97"/>
                        <use x="261.296875" xlink:href="#DejaVuSans-105"/>
                        <use x="289.080078" xlink:href="#DejaVuSans-110"/>
                        <use x="352.458984" xlink:href="#DejaVuSans-105"/>
                        <use x="380.242188" xlink:href="#DejaVuSans-110"/>
                        <use x="443.621094" xlink:href="#DejaVuSans-103"/>
                    </g>
                </g>
            </g>
        </g>
    </g>
    <defs>
        <clipPath id="p1228940a2f">
            <rect height="120.96" width="357.12" x="57.6" y="41.472"/>
        </clipPath>
        <clipPath id="p0c7a142aa9">
            <rect height="120.96" width="357.12" x="57.6" y="186.624"/>
        </clipPath>
    </defs>
</svg>
