<?xml version="1.0" encoding="utf-8" standalone="no"?>
<!DOCTYPE svg PUBLIC "-//W3C//DTD SVG 1.1//EN"
        "http://www.w3.org/Graphics/SVG/1.1/DTD/svg11.dtd">
<!-- Created with matplotlib (https://matplotlib.org/) -->
<svg height="345.6pt" version="1.1" viewBox="0 0 460.8 345.6" width="460.8pt" xmlns="http://www.w3.org/2000/svg"
     xmlns:xlink="http://www.w3.org/1999/xlink">
    <defs>
        <style type="text/css">
            *{stroke-linecap:butt;stroke-linejoin:round;}
        </style>
    </defs>
    <g id="figure_1">
        <g id="patch_1">
            <path d="M 0 345.6
L 460.8 345.6 
L 460.8 0 
L 0 0 
z
" style="fill:none;"/>
        </g>
        <g id="axes_1">
            <g id="patch_2">
                <path d="M 57.6 307.584
L 414.72 307.584 
L 414.72 41.472 
L 57.6 41.472 
z
" style="fill:none;"/>
            </g>
            <g id="patch_3">
                <path clip-path="url(#p82cb2227a7)" d="M 57.6 307.584
L 57.6 241.056 
L 61.244082 239.698286 
L 64.888163 238.340571 
L 68.532245 236.982857 
L 72.176327 235.625143 
L 75.820408 234.267429 
L 79.46449 232.909714 
L 83.108571 231.552 
L 86.752653 230.194286 
L 90.396735 228.836571 
L 94.040816 227.478857 
L 97.684898 226.121143 
L 101.32898 224.763429 
L 104.973061 223.405714 
L 108.617143 222.048 
L 112.261224 220.690286 
L 115.905306 219.332571 
L 119.549388 217.974857 
L 123.193469 216.617143 
L 126.837551 215.259429 
L 130.481633 213.901714 
L 134.125714 212.544 
L 137.769796 211.186286 
L 141.413878 209.828571 
L 145.057959 208.470857 
L 148.702041 207.113143 
L 152.346122 205.755429 
L 155.990204 204.397714 
L 159.634286 203.04 
L 163.278367 201.682286 
L 166.922449 200.324571 
L 170.566531 198.966857 
L 174.210612 197.609143 
L 177.854694 196.251429 
L 181.498776 194.893714 
L 185.142857 193.536 
L 188.786939 192.178286 
L 192.43102 190.820571 
L 196.075102 189.462857 
L 199.719184 188.105143 
L 203.363265 186.747429 
L 207.007347 185.389714 
L 210.651429 184.032 
L 214.29551 182.674286 
L 217.939592 181.316571 
L 221.583673 179.958857 
L 225.227755 178.601143 
L 228.871837 177.243429 
L 232.515918 175.885714 
L 236.16 174.528 
L 236.16 307.584 
z
" style="fill:#e6e6e6;stroke:#808080;stroke-linejoin:miter;"/>
            </g>
            <g id="patch_4">
                <path clip-path="url(#p82cb2227a7)" d="M 236.16 307.584
L 236.16 174.528 
L 239.804082 173.170286 
L 243.448163 171.812571 
L 247.092245 170.454857 
L 250.736327 169.097143 
L 254.380408 167.739429 
L 258.02449 166.381714 
L 261.668571 165.024 
L 265.312653 163.666286 
L 268.956735 162.308571 
L 272.600816 160.950857 
L 276.244898 159.593143 
L 279.88898 158.235429 
L 283.533061 156.877714 
L 287.177143 155.52 
L 290.821224 154.162286 
L 294.465306 152.804571 
L 298.109388 151.446857 
L 301.753469 150.089143 
L 305.397551 148.731429 
L 309.041633 147.373714 
L 312.685714 146.016 
L 316.329796 144.658286 
L 319.973878 143.300571 
L 323.617959 141.942857 
L 327.262041 140.585143 
L 330.906122 139.227429 
L 334.550204 137.869714 
L 338.194286 136.512 
L 341.838367 135.154286 
L 345.482449 133.796571 
L 349.126531 132.438857 
L 352.770612 131.081143 
L 356.414694 129.723429 
L 360.058776 128.365714 
L 363.702857 127.008 
L 367.346939 125.650286 
L 370.99102 124.292571 
L 374.635102 122.934857 
L 378.279184 121.577143 
L 381.923265 120.219429 
L 385.567347 118.861714 
L 389.211429 117.504 
L 392.85551 116.146286 
L 396.499592 114.788571 
L 400.143673 113.430857 
L 403.787755 112.073143 
L 407.431837 110.715429 
L 411.075918 109.357714 
L 414.72 108 
L 414.72 307.584 
z
" style="fill:#f2f2f2;stroke:#808080;stroke-linejoin:miter;"/>
            </g>
            <g id="matplotlib.axis_1">
                <g id="xtick_1">
                    <g id="line2d_1">
                        <defs>
                            <path d="M 0 0
L 0 3.5 
" id="me68a73399b" style="stroke:#000000;stroke-width:0.8;"/>
                        </defs>
                        <g>
                            <use style="stroke:#000000;stroke-width:0.8;" x="57.6" xlink:href="#me68a73399b"
                                 y="307.584"/>
                        </g>
                    </g>
                    <g id="text_1">
                        <!-- $0$ -->
                        <defs>
                            <path d="M 31.78125 66.40625
Q 24.171875 66.40625 20.328125 58.90625 
Q 16.5 51.421875 16.5 36.375 
Q 16.5 21.390625 20.328125 13.890625 
Q 24.171875 6.390625 31.78125 6.390625 
Q 39.453125 6.390625 43.28125 13.890625 
Q 47.125 21.390625 47.125 36.375 
Q 47.125 51.421875 43.28125 58.90625 
Q 39.453125 66.40625 31.78125 66.40625 
z
M 31.78125 74.21875 
Q 44.046875 74.21875 50.515625 64.515625 
Q 56.984375 54.828125 56.984375 36.375 
Q 56.984375 17.96875 50.515625 8.265625 
Q 44.046875 -1.421875 31.78125 -1.421875 
Q 19.53125 -1.421875 13.0625 8.265625 
Q 6.59375 17.96875 6.59375 36.375 
Q 6.59375 54.828125 13.0625 64.515625 
Q 19.53125 74.21875 31.78125 74.21875 
z
" id="DejaVuSans-48"/>
                        </defs>
                        <g transform="translate(54.4 322.182437)scale(0.1 -0.1)">
                            <use transform="translate(0 0.78125)" xlink:href="#DejaVuSans-48"/>
                        </g>
                    </g>
                </g>
                <g id="xtick_2">
                    <g id="line2d_2">
                        <g>
                            <use style="stroke:#000000;stroke-width:0.8;" x="236.16" xlink:href="#me68a73399b"
                                 y="307.584"/>
                        </g>
                    </g>
                    <g id="text_2">
                        <!-- $x$ -->
                        <defs>
                            <path d="M 60.015625 54.6875
L 34.90625 27.875 
L 50.296875 0 
L 39.984375 0 
L 28.421875 21.6875 
L 8.296875 0 
L -2.59375 0 
L 24.3125 28.8125 
L 10.015625 54.6875 
L 20.3125 54.6875 
L 30.8125 34.90625 
L 49.125 54.6875 
z
" id="DejaVuSans-Oblique-120"/>
                        </defs>
                        <g transform="translate(233.16 322.182437)scale(0.1 -0.1)">
                            <use transform="translate(0 0.3125)" xlink:href="#DejaVuSans-Oblique-120"/>
                        </g>
                    </g>
                </g>
                <g id="xtick_3">
                    <g id="line2d_3">
                        <g>
                            <use style="stroke:#000000;stroke-width:0.8;" x="414.72" xlink:href="#me68a73399b"
                                 y="307.584"/>
                        </g>
                    </g>
                    <g id="text_3">
                        <!-- $1$ -->
                        <defs>
                            <path d="M 12.40625 8.296875
L 28.515625 8.296875 
L 28.515625 63.921875 
L 10.984375 60.40625 
L 10.984375 69.390625 
L 28.421875 72.90625 
L 38.28125 72.90625 
L 38.28125 8.296875 
L 54.390625 8.296875 
L 54.390625 0 
L 12.40625 0 
z
" id="DejaVuSans-49"/>
                        </defs>
                        <g transform="translate(411.52 322.182437)scale(0.1 -0.1)">
                            <use transform="translate(0 0.09375)" xlink:href="#DejaVuSans-49"/>
                        </g>
                    </g>
                </g>
            </g>
            <g id="matplotlib.axis_2">
                <g id="ytick_1">
                    <g id="line2d_4">
                        <defs>
                            <path d="M 0 0
L -3.5 0 
" id="mce1d10bcf5" style="stroke:#000000;stroke-width:0.8;"/>
                        </defs>
                        <g>
                            <use style="stroke:#000000;stroke-width:0.8;" x="57.6" xlink:href="#mce1d10bcf5"
                                 y="241.056"/>
                        </g>
                    </g>
                    <g id="text_4">
                        <!-- $K_0$ -->
                        <defs>
                            <path d="M 16.890625 72.90625
L 26.8125 72.90625 
L 20.796875 42.1875 
L 59.078125 72.90625 
L 72.21875 72.90625 
L 28.90625 38.09375 
L 60.59375 0 
L 48.578125 0 
L 19.484375 35.5 
L 12.59375 0 
L 2.6875 0 
z
" id="DejaVuSans-Oblique-75"/>
                        </defs>
                        <g transform="translate(39.3 244.855219)scale(0.1 -0.1)">
                            <use transform="translate(0 0.09375)" xlink:href="#DejaVuSans-Oblique-75"/>
                            <use transform="translate(65.576172 -16.3125)scale(0.7)" xlink:href="#DejaVuSans-48"/>
                        </g>
                    </g>
                </g>
                <g id="ytick_2">
                    <g id="line2d_5">
                        <g>
                            <use style="stroke:#000000;stroke-width:0.8;" x="57.6" xlink:href="#mce1d10bcf5" y="108"/>
                        </g>
                    </g>
                    <g id="text_5">
                        <!-- $K_1$ -->
                        <g transform="translate(39.3 111.799219)scale(0.1 -0.1)">
                            <use transform="translate(0 0.09375)" xlink:href="#DejaVuSans-Oblique-75"/>
                            <use transform="translate(65.576172 -16.3125)scale(0.7)" xlink:href="#DejaVuSans-49"/>
                        </g>
                    </g>
                </g>
            </g>
            <g id="line2d_6">
                <path clip-path="url(#p82cb2227a7)" d="M 57.6 241.056
L 64.888163 238.340571 
L 72.176327 235.625143 
L 79.46449 232.909714 
L 86.752653 230.194286 
L 94.040816 227.478857 
L 101.32898 224.763429 
L 108.617143 222.048 
L 115.905306 219.332571 
L 123.193469 216.617143 
L 130.481633 213.901714 
L 137.769796 211.186286 
L 145.057959 208.470857 
L 152.346122 205.755429 
L 159.634286 203.04 
L 166.922449 200.324571 
L 174.210612 197.609143 
L 181.498776 194.893714 
L 188.786939 192.178286 
L 196.075102 189.462857 
L 203.363265 186.747429 
L 210.651429 184.032 
L 217.939592 181.316571 
L 225.227755 178.601143 
L 232.515918 175.885714 
L 239.804082 173.170286 
L 247.092245 170.454857 
L 254.380408 167.739429 
L 261.668571 165.024 
L 268.956735 162.308571 
L 276.244898 159.593143 
L 283.533061 156.877714 
L 290.821224 154.162286 
L 298.109388 151.446857 
L 305.397551 148.731429 
L 312.685714 146.016 
L 319.973878 143.300571 
L 327.262041 140.585143 
L 334.550204 137.869714 
L 341.838367 135.154286 
L 349.126531 132.438857 
L 356.414694 129.723429 
L 363.702857 127.008 
L 370.99102 124.292571 
L 378.279184 121.577143 
L 385.567347 118.861714 
L 392.85551 116.146286 
L 400.143673 113.430857 
L 407.431837 110.715429 
L 414.72 108 
" style="fill:none;stroke:#ff0000;stroke-linecap:square;stroke-width:2;"/>
            </g>
            <g id="line2d_7">
                <path clip-path="url(#p82cb2227a7)" d="M 57.6 241.056
L 64.888163 241.056 
L 72.176327 241.056 
L 79.46449 241.056 
L 86.752653 241.056 
L 94.040816 241.056 
L 101.32898 241.056 
L 108.617143 241.056 
L 115.905306 241.056 
L 123.193469 241.056 
L 130.481633 241.056 
L 137.769796 241.056 
L 145.057959 241.056 
L 152.346122 241.056 
L 159.634286 241.056 
L 166.922449 241.056 
L 174.210612 241.056 
L 181.498776 241.056 
L 188.786939 241.056 
L 196.075102 241.056 
L 203.363265 241.056 
L 210.651429 241.056 
L 217.939592 241.056 
L 225.227755 241.056 
L 232.515918 241.056 
L 239.804082 241.056 
L 247.092245 241.056 
L 254.380408 241.056 
L 261.668571 241.056 
L 268.956735 241.056 
L 276.244898 241.056 
L 283.533061 241.056 
L 290.821224 241.056 
L 298.109388 241.056 
L 305.397551 241.056 
L 312.685714 241.056 
L 319.973878 241.056 
L 327.262041 241.056 
L 334.550204 241.056 
L 341.838367 241.056 
L 349.126531 241.056 
L 356.414694 241.056 
L 363.702857 241.056 
L 370.99102 241.056 
L 378.279184 241.056 
L 385.567347 241.056 
L 392.85551 241.056 
L 400.143673 241.056 
L 407.431837 241.056 
L 414.72 241.056 
" style="fill:none;stroke:#ff0000;stroke-dasharray:3.7,1.6;stroke-dashoffset:0;"/>
            </g>
            <g id="line2d_8">
                <path clip-path="url(#p82cb2227a7)" d="M 57.6 108
L 64.888163 108 
L 72.176327 108 
L 79.46449 108 
L 86.752653 108 
L 94.040816 108 
L 101.32898 108 
L 108.617143 108 
L 115.905306 108 
L 123.193469 108 
L 130.481633 108 
L 137.769796 108 
L 145.057959 108 
L 152.346122 108 
L 159.634286 108 
L 166.922449 108 
L 174.210612 108 
L 181.498776 108 
L 188.786939 108 
L 196.075102 108 
L 203.363265 108 
L 210.651429 108 
L 217.939592 108 
L 225.227755 108 
L 232.515918 108 
L 239.804082 108 
L 247.092245 108 
L 254.380408 108 
L 261.668571 108 
L 268.956735 108 
L 276.244898 108 
L 283.533061 108 
L 290.821224 108 
L 298.109388 108 
L 305.397551 108 
L 312.685714 108 
L 319.973878 108 
L 327.262041 108 
L 334.550204 108 
L 341.838367 108 
L 349.126531 108 
L 356.414694 108 
L 363.702857 108 
L 370.99102 108 
L 378.279184 108 
L 385.567347 108 
L 392.85551 108 
L 400.143673 108 
L 407.431837 108 
L 414.72 108 
" style="fill:none;stroke:#ff0000;stroke-dasharray:3.7,1.6;stroke-dashoffset:0;"/>
            </g>
            <g id="patch_5">
                <path d="M 57.6 307.584
L 57.6 41.472 
" style="fill:none;stroke:#000000;stroke-linecap:square;stroke-linejoin:miter;stroke-width:0.8;"/>
            </g>
            <g id="patch_6">
                <path d="M 57.6 307.584
L 414.72 307.584 
" style="fill:none;stroke:#000000;stroke-linecap:square;stroke-linejoin:miter;stroke-width:0.8;"/>
            </g>
            <g id="text_6">
                <!-- $A_x$ -->
                <defs>
                    <path d="M 36.8125 72.90625
L 48 72.90625 
L 61.53125 0 
L 51.21875 0 
L 48.1875 18.703125 
L 15.375 18.703125 
L 5.078125 0 
L -5.328125 0 
z
M 40.375 63.1875 
L 19.921875 26.90625 
L 46.6875 26.90625 
z
" id="DejaVuSans-Oblique-65"/>
                </defs>
                <g transform="translate(135.58 274.32)scale(0.2 -0.2)">
                    <use transform="translate(0 0.09375)" xlink:href="#DejaVuSans-Oblique-65"/>
                    <use transform="translate(68.408203 -16.3125)scale(0.7)" xlink:href="#DejaVuSans-Oblique-120"/>
                </g>
            </g>
        </g>
    </g>
    <defs>
        <clipPath id="p82cb2227a7">
            <rect height="266.112" width="357.12" x="57.6" y="41.472"/>
        </clipPath>
    </defs>
</svg>
