<?xml version="1.0" encoding="utf-8" standalone="no"?>
<!DOCTYPE svg PUBLIC "-//W3C//DTD SVG 1.1//EN"
        "http://www.w3.org/Graphics/SVG/1.1/DTD/svg11.dtd">
<!-- Created with matplotlib (https://matplotlib.org/) -->
<svg height="345.6pt" version="1.1" viewBox="0 0 460.8 345.6" width="460.8pt" xmlns="http://www.w3.org/2000/svg"
     xmlns:xlink="http://www.w3.org/1999/xlink">
    <defs>
        <style type="text/css">
            *{stroke-linecap:butt;stroke-linejoin:round;}
        </style>
    </defs>
    <g id="figure_1">
        <g id="patch_1">
            <path d="M 0 345.6
L 460.8 345.6 
L 460.8 0 
L 0 0 
z
" style="fill:none;"/>
        </g>
        <g id="axes_1">
            <g id="patch_2">
                <path d="M 57.6 162.432
L 414.72 162.432 
L 414.72 41.472 
L 57.6 41.472 
z
" style="fill:none;"/>
            </g>
            <g id="matplotlib.axis_1">
                <g id="xtick_1">
                    <g id="line2d_1">
                        <defs>
                            <path d="M 0 0
L 0 3.5 
" id="mfbe7fe0251" style="stroke:#000000;stroke-width:0.8;"/>
                        </defs>
                        <g>
                            <use style="stroke:#000000;stroke-width:0.8;" x="73.832727" xlink:href="#mfbe7fe0251"
                                 y="162.432"/>
                        </g>
                    </g>
                </g>
                <g id="xtick_2">
                    <g id="line2d_2">
                        <g>
                            <use style="stroke:#000000;stroke-width:0.8;" x="140.771809" xlink:href="#mfbe7fe0251"
                                 y="162.432"/>
                        </g>
                    </g>
                </g>
                <g id="xtick_3">
                    <g id="line2d_3">
                        <g>
                            <use style="stroke:#000000;stroke-width:0.8;" x="207.71089" xlink:href="#mfbe7fe0251"
                                 y="162.432"/>
                        </g>
                    </g>
                </g>
                <g id="xtick_4">
                    <g id="line2d_4">
                        <g>
                            <use style="stroke:#000000;stroke-width:0.8;" x="274.649972" xlink:href="#mfbe7fe0251"
                                 y="162.432"/>
                        </g>
                    </g>
                </g>
                <g id="xtick_5">
                    <g id="line2d_5">
                        <g>
                            <use style="stroke:#000000;stroke-width:0.8;" x="341.589053" xlink:href="#mfbe7fe0251"
                                 y="162.432"/>
                        </g>
                    </g>
                </g>
                <g id="xtick_6">
                    <g id="line2d_6">
                        <g>
                            <use style="stroke:#000000;stroke-width:0.8;" x="408.528135" xlink:href="#mfbe7fe0251"
                                 y="162.432"/>
                        </g>
                    </g>
                </g>
            </g>
            <g id="matplotlib.axis_2">
                <g id="ytick_1">
                    <g id="line2d_7">
                        <defs>
                            <path d="M 0 0
L -3.5 0 
" id="md00a8bda10" style="stroke:#000000;stroke-width:0.8;"/>
                        </defs>
                        <g>
                            <use style="stroke:#000000;stroke-width:0.8;" x="57.6" xlink:href="#md00a8bda10"
                                 y="156.933818"/>
                        </g>
                    </g>
                    <g id="text_1">
                        <!-- 0 -->
                        <defs>
                            <path d="M 31.78125 66.40625
Q 24.171875 66.40625 20.328125 58.90625 
Q 16.5 51.421875 16.5 36.375 
Q 16.5 21.390625 20.328125 13.890625 
Q 24.171875 6.390625 31.78125 6.390625 
Q 39.453125 6.390625 43.28125 13.890625 
Q 47.125 21.390625 47.125 36.375 
Q 47.125 51.421875 43.28125 58.90625 
Q 39.453125 66.40625 31.78125 66.40625 
z
M 31.78125 74.21875 
Q 44.046875 74.21875 50.515625 64.515625 
Q 56.984375 54.828125 56.984375 36.375 
Q 56.984375 17.96875 50.515625 8.265625 
Q 44.046875 -1.421875 31.78125 -1.421875 
Q 19.53125 -1.421875 13.0625 8.265625 
Q 6.59375 17.96875 6.59375 36.375 
Q 6.59375 54.828125 13.0625 64.515625 
Q 19.53125 74.21875 31.78125 74.21875 
z
" id="DejaVuSans-48"/>
                        </defs>
                        <g transform="translate(44.2375 160.733037)scale(0.1 -0.1)">
                            <use xlink:href="#DejaVuSans-48"/>
                        </g>
                    </g>
                </g>
                <g id="ytick_2">
                    <g id="line2d_8">
                        <g>
                            <use style="stroke:#000000;stroke-width:0.8;" x="57.6" xlink:href="#md00a8bda10"
                                 y="134.400286"/>
                        </g>
                    </g>
                    <g id="text_2">
                        <!-- 25 -->
                        <defs>
                            <path d="M 19.1875 8.296875
L 53.609375 8.296875 
L 53.609375 0 
L 7.328125 0 
L 7.328125 8.296875 
Q 12.9375 14.109375 22.625 23.890625 
Q 32.328125 33.6875 34.8125 36.53125 
Q 39.546875 41.84375 41.421875 45.53125 
Q 43.3125 49.21875 43.3125 52.78125 
Q 43.3125 58.59375 39.234375 62.25 
Q 35.15625 65.921875 28.609375 65.921875 
Q 23.96875 65.921875 18.8125 64.3125 
Q 13.671875 62.703125 7.8125 59.421875 
L 7.8125 69.390625 
Q 13.765625 71.78125 18.9375 73 
Q 24.125 74.21875 28.421875 74.21875 
Q 39.75 74.21875 46.484375 68.546875 
Q 53.21875 62.890625 53.21875 53.421875 
Q 53.21875 48.921875 51.53125 44.890625 
Q 49.859375 40.875 45.40625 35.40625 
Q 44.1875 33.984375 37.640625 27.21875 
Q 31.109375 20.453125 19.1875 8.296875 
z
" id="DejaVuSans-50"/>
                            <path d="M 10.796875 72.90625
L 49.515625 72.90625 
L 49.515625 64.59375 
L 19.828125 64.59375 
L 19.828125 46.734375 
Q 21.96875 47.46875 24.109375 47.828125 
Q 26.265625 48.1875 28.421875 48.1875 
Q 40.625 48.1875 47.75 41.5 
Q 54.890625 34.8125 54.890625 23.390625 
Q 54.890625 11.625 47.5625 5.09375 
Q 40.234375 -1.421875 26.90625 -1.421875 
Q 22.3125 -1.421875 17.546875 -0.640625 
Q 12.796875 0.140625 7.71875 1.703125 
L 7.71875 11.625 
Q 12.109375 9.234375 16.796875 8.0625 
Q 21.484375 6.890625 26.703125 6.890625 
Q 35.15625 6.890625 40.078125 11.328125 
Q 45.015625 15.765625 45.015625 23.390625 
Q 45.015625 31 40.078125 35.4375 
Q 35.15625 39.890625 26.703125 39.890625 
Q 22.75 39.890625 18.8125 39.015625 
Q 14.890625 38.140625 10.796875 36.28125 
z
" id="DejaVuSans-53"/>
                        </defs>
                        <g transform="translate(37.875 138.199505)scale(0.1 -0.1)">
                            <use xlink:href="#DejaVuSans-50"/>
                            <use x="63.623047" xlink:href="#DejaVuSans-53"/>
                        </g>
                    </g>
                </g>
                <g id="ytick_3">
                    <g id="line2d_9">
                        <g>
                            <use style="stroke:#000000;stroke-width:0.8;" x="57.6" xlink:href="#md00a8bda10"
                                 y="111.866754"/>
                        </g>
                    </g>
                    <g id="text_3">
                        <!-- 50 -->
                        <g transform="translate(37.875 115.665973)scale(0.1 -0.1)">
                            <use xlink:href="#DejaVuSans-53"/>
                            <use x="63.623047" xlink:href="#DejaVuSans-48"/>
                        </g>
                    </g>
                </g>
                <g id="ytick_4">
                    <g id="line2d_10">
                        <g>
                            <use style="stroke:#000000;stroke-width:0.8;" x="57.6" xlink:href="#md00a8bda10"
                                 y="89.333222"/>
                        </g>
                    </g>
                    <g id="text_4">
                        <!-- 75 -->
                        <defs>
                            <path d="M 8.203125 72.90625
L 55.078125 72.90625 
L 55.078125 68.703125 
L 28.609375 0 
L 18.3125 0 
L 43.21875 64.59375 
L 8.203125 64.59375 
z
" id="DejaVuSans-55"/>
                        </defs>
                        <g transform="translate(37.875 93.132441)scale(0.1 -0.1)">
                            <use xlink:href="#DejaVuSans-55"/>
                            <use x="63.623047" xlink:href="#DejaVuSans-53"/>
                        </g>
                    </g>
                </g>
                <g id="ytick_5">
                    <g id="line2d_11">
                        <g>
                            <use style="stroke:#000000;stroke-width:0.8;" x="57.6" xlink:href="#md00a8bda10"
                                 y="66.79969"/>
                        </g>
                    </g>
                    <g id="text_5">
                        <!-- 100 -->
                        <defs>
                            <path d="M 12.40625 8.296875
L 28.515625 8.296875 
L 28.515625 63.921875 
L 10.984375 60.40625 
L 10.984375 69.390625 
L 28.421875 72.90625 
L 38.28125 72.90625 
L 38.28125 8.296875 
L 54.390625 8.296875 
L 54.390625 0 
L 12.40625 0 
z
" id="DejaVuSans-49"/>
                        </defs>
                        <g transform="translate(31.5125 70.598909)scale(0.1 -0.1)">
                            <use xlink:href="#DejaVuSans-49"/>
                            <use x="63.623047" xlink:href="#DejaVuSans-48"/>
                            <use x="127.246094" xlink:href="#DejaVuSans-48"/>
                        </g>
                    </g>
                </g>
                <g id="ytick_6">
                    <g id="line2d_12">
                        <g>
                            <use style="stroke:#000000;stroke-width:0.8;" x="57.6" xlink:href="#md00a8bda10"
                                 y="44.266158"/>
                        </g>
                    </g>
                    <g id="text_6">
                        <!-- 125 -->
                        <g transform="translate(31.5125 48.065377)scale(0.1 -0.1)">
                            <use xlink:href="#DejaVuSans-49"/>
                            <use x="63.623047" xlink:href="#DejaVuSans-50"/>
                            <use x="127.246094" xlink:href="#DejaVuSans-53"/>
                        </g>
                    </g>
                </g>
            </g>
            <g id="line2d_13">
                <path clip-path="url(#p0bd09e3c83)" d="M 73.832727 151.52577
L 77.179681 150.624429 
L 80.526635 149.723088 
L 83.87359 147.019064 
L 87.220544 147.920405 
L 90.567498 150.624429 
L 93.914452 147.920405 
L 97.261406 147.019064 
L 100.60836 147.920405 
L 103.955314 146.117723 
L 107.302268 144.31504 
L 110.649222 142.512358 
L 113.996176 138.906993 
L 117.34313 138.005651 
L 120.690084 138.005651 
L 124.037038 134.400286 
L 127.383993 133.498945 
L 130.730947 133.498945 
L 134.077901 132.597604 
L 137.424855 131.696262 
L 140.771809 119.978826 
L 144.118763 108.261389 
L 147.465717 114.570778 
L 150.812671 134.400286 
L 154.159625 125.386873 
L 157.506579 120.880167 
L 160.853533 115.472119 
L 164.200487 118.176143 
L 167.547441 123.584191 
L 170.894396 108.261389 
L 174.24135 102.853341 
L 177.588304 107.360048 
L 180.935258 105.557365 
L 184.282212 118.176143 
L 187.629166 118.176143 
L 190.97612 124.485532 
L 194.323074 119.077484 
L 197.670028 101.952 
L 201.016982 100.149317 
L 204.363936 108.261389 
L 207.71089 83.023833 
L 211.057844 79.418468 
L 214.404799 81.221151 
L 217.751753 79.418468 
L 221.098707 74.911762 
L 224.445661 75.813103 
L 227.792615 109.16273 
L 231.139569 114.570778 
L 234.486523 113.669437 
L 237.833477 112.768095 
L 241.180431 111.866754 
L 244.527385 115.472119 
L 247.874339 120.880167 
L 251.221293 122.682849 
L 254.568247 124.485532 
L 257.915201 122.682849 
L 261.262156 125.386873 
L 264.60911 119.978826 
L 267.956064 117.274802 
L 271.303018 106.458706 
L 274.649972 96.543952 
L 277.996926 81.221151 
L 281.34388 78.517127 
L 284.690834 85.727857 
L 288.037788 79.418468 
L 291.384742 68.602373 
L 294.731696 74.911762 
L 298.07865 80.319809 
L 301.425604 93.839928 
L 304.772559 92.938587 
L 308.119513 94.74127 
L 311.466467 91.135905 
L 314.813421 90.234563 
L 318.160375 88.431881 
L 321.507329 87.530539 
L 324.854283 87.530539 
L 328.201237 86.629198 
L 331.548191 93.839928 
L 334.895145 86.629198 
L 338.242099 88.431881 
L 341.589053 85.727857 
L 344.936007 71.306396 
L 348.282962 67.701031 
L 351.629916 67.701031 
L 354.97687 65.898349 
L 358.323824 64.997007 
L 361.670778 60.490301 
L 365.017732 60.490301 
L 368.364686 58.687618 
L 371.71164 57.786277 
L 375.058594 56.884936 
L 378.405548 55.983595 
L 381.752502 53.279571 
L 385.099456 51.476888 
L 388.44641 47.871523 
L 391.793365 46.970182 
L 395.140319 138.906993 
L 398.487273 156.933818 
" style="fill:none;stroke:#1f77b4;stroke-linecap:square;stroke-width:1.5;"/>
                <defs>
                    <path d="M 0 3
C 0.795609 3 1.55874 2.683901 2.12132 2.12132 
C 2.683901 1.55874 3 0.795609 3 0 
C 3 -0.795609 2.683901 -1.55874 2.12132 -2.12132 
C 1.55874 -2.683901 0.795609 -3 0 -3 
C -0.795609 -3 -1.55874 -2.683901 -2.12132 -2.12132 
C -2.683901 -1.55874 -3 -0.795609 -3 0 
C -3 0.795609 -2.683901 1.55874 -2.12132 2.12132 
C -1.55874 2.683901 -0.795609 3 0 3 
z
" id="m44ead47af7" style="stroke:#1f77b4;"/>
                </defs>
                <g clip-path="url(#p0bd09e3c83)">
                    <use style="fill:#1f77b4;stroke:#1f77b4;" x="73.832727" xlink:href="#m44ead47af7" y="151.52577"/>
                    <use style="fill:#1f77b4;stroke:#1f77b4;" x="77.179681" xlink:href="#m44ead47af7" y="150.624429"/>
                    <use style="fill:#1f77b4;stroke:#1f77b4;" x="80.526635" xlink:href="#m44ead47af7" y="149.723088"/>
                    <use style="fill:#1f77b4;stroke:#1f77b4;" x="83.87359" xlink:href="#m44ead47af7" y="147.019064"/>
                    <use style="fill:#1f77b4;stroke:#1f77b4;" x="87.220544" xlink:href="#m44ead47af7" y="147.920405"/>
                    <use style="fill:#1f77b4;stroke:#1f77b4;" x="90.567498" xlink:href="#m44ead47af7" y="150.624429"/>
                    <use style="fill:#1f77b4;stroke:#1f77b4;" x="93.914452" xlink:href="#m44ead47af7" y="147.920405"/>
                    <use style="fill:#1f77b4;stroke:#1f77b4;" x="97.261406" xlink:href="#m44ead47af7" y="147.019064"/>
                    <use style="fill:#1f77b4;stroke:#1f77b4;" x="100.60836" xlink:href="#m44ead47af7" y="147.920405"/>
                    <use style="fill:#1f77b4;stroke:#1f77b4;" x="103.955314" xlink:href="#m44ead47af7" y="146.117723"/>
                    <use style="fill:#1f77b4;stroke:#1f77b4;" x="107.302268" xlink:href="#m44ead47af7" y="144.31504"/>
                    <use style="fill:#1f77b4;stroke:#1f77b4;" x="110.649222" xlink:href="#m44ead47af7" y="142.512358"/>
                    <use style="fill:#1f77b4;stroke:#1f77b4;" x="113.996176" xlink:href="#m44ead47af7" y="138.906993"/>
                    <use style="fill:#1f77b4;stroke:#1f77b4;" x="117.34313" xlink:href="#m44ead47af7" y="138.005651"/>
                    <use style="fill:#1f77b4;stroke:#1f77b4;" x="120.690084" xlink:href="#m44ead47af7" y="138.005651"/>
                    <use style="fill:#1f77b4;stroke:#1f77b4;" x="124.037038" xlink:href="#m44ead47af7" y="134.400286"/>
                    <use style="fill:#1f77b4;stroke:#1f77b4;" x="127.383993" xlink:href="#m44ead47af7" y="133.498945"/>
                    <use style="fill:#1f77b4;stroke:#1f77b4;" x="130.730947" xlink:href="#m44ead47af7" y="133.498945"/>
                    <use style="fill:#1f77b4;stroke:#1f77b4;" x="134.077901" xlink:href="#m44ead47af7" y="132.597604"/>
                    <use style="fill:#1f77b4;stroke:#1f77b4;" x="137.424855" xlink:href="#m44ead47af7" y="131.696262"/>
                    <use style="fill:#1f77b4;stroke:#1f77b4;" x="140.771809" xlink:href="#m44ead47af7" y="119.978826"/>
                    <use style="fill:#1f77b4;stroke:#1f77b4;" x="144.118763" xlink:href="#m44ead47af7" y="108.261389"/>
                    <use style="fill:#1f77b4;stroke:#1f77b4;" x="147.465717" xlink:href="#m44ead47af7" y="114.570778"/>
                    <use style="fill:#1f77b4;stroke:#1f77b4;" x="150.812671" xlink:href="#m44ead47af7" y="134.400286"/>
                    <use style="fill:#1f77b4;stroke:#1f77b4;" x="154.159625" xlink:href="#m44ead47af7" y="125.386873"/>
                    <use style="fill:#1f77b4;stroke:#1f77b4;" x="157.506579" xlink:href="#m44ead47af7" y="120.880167"/>
                    <use style="fill:#1f77b4;stroke:#1f77b4;" x="160.853533" xlink:href="#m44ead47af7" y="115.472119"/>
                    <use style="fill:#1f77b4;stroke:#1f77b4;" x="164.200487" xlink:href="#m44ead47af7" y="118.176143"/>
                    <use style="fill:#1f77b4;stroke:#1f77b4;" x="167.547441" xlink:href="#m44ead47af7" y="123.584191"/>
                    <use style="fill:#1f77b4;stroke:#1f77b4;" x="170.894396" xlink:href="#m44ead47af7" y="108.261389"/>
                    <use style="fill:#1f77b4;stroke:#1f77b4;" x="174.24135" xlink:href="#m44ead47af7" y="102.853341"/>
                    <use style="fill:#1f77b4;stroke:#1f77b4;" x="177.588304" xlink:href="#m44ead47af7" y="107.360048"/>
                    <use style="fill:#1f77b4;stroke:#1f77b4;" x="180.935258" xlink:href="#m44ead47af7" y="105.557365"/>
                    <use style="fill:#1f77b4;stroke:#1f77b4;" x="184.282212" xlink:href="#m44ead47af7" y="118.176143"/>
                    <use style="fill:#1f77b4;stroke:#1f77b4;" x="187.629166" xlink:href="#m44ead47af7" y="118.176143"/>
                    <use style="fill:#1f77b4;stroke:#1f77b4;" x="190.97612" xlink:href="#m44ead47af7" y="124.485532"/>
                    <use style="fill:#1f77b4;stroke:#1f77b4;" x="194.323074" xlink:href="#m44ead47af7" y="119.077484"/>
                    <use style="fill:#1f77b4;stroke:#1f77b4;" x="197.670028" xlink:href="#m44ead47af7" y="101.952"/>
                    <use style="fill:#1f77b4;stroke:#1f77b4;" x="201.016982" xlink:href="#m44ead47af7" y="100.149317"/>
                    <use style="fill:#1f77b4;stroke:#1f77b4;" x="204.363936" xlink:href="#m44ead47af7" y="108.261389"/>
                    <use style="fill:#1f77b4;stroke:#1f77b4;" x="207.71089" xlink:href="#m44ead47af7" y="83.023833"/>
                    <use style="fill:#1f77b4;stroke:#1f77b4;" x="211.057844" xlink:href="#m44ead47af7" y="79.418468"/>
                    <use style="fill:#1f77b4;stroke:#1f77b4;" x="214.404799" xlink:href="#m44ead47af7" y="81.221151"/>
                    <use style="fill:#1f77b4;stroke:#1f77b4;" x="217.751753" xlink:href="#m44ead47af7" y="79.418468"/>
                    <use style="fill:#1f77b4;stroke:#1f77b4;" x="221.098707" xlink:href="#m44ead47af7" y="74.911762"/>
                    <use style="fill:#1f77b4;stroke:#1f77b4;" x="224.445661" xlink:href="#m44ead47af7" y="75.813103"/>
                    <use style="fill:#1f77b4;stroke:#1f77b4;" x="227.792615" xlink:href="#m44ead47af7" y="109.16273"/>
                    <use style="fill:#1f77b4;stroke:#1f77b4;" x="231.139569" xlink:href="#m44ead47af7" y="114.570778"/>
                    <use style="fill:#1f77b4;stroke:#1f77b4;" x="234.486523" xlink:href="#m44ead47af7" y="113.669437"/>
                    <use style="fill:#1f77b4;stroke:#1f77b4;" x="237.833477" xlink:href="#m44ead47af7" y="112.768095"/>
                    <use style="fill:#1f77b4;stroke:#1f77b4;" x="241.180431" xlink:href="#m44ead47af7" y="111.866754"/>
                    <use style="fill:#1f77b4;stroke:#1f77b4;" x="244.527385" xlink:href="#m44ead47af7" y="115.472119"/>
                    <use style="fill:#1f77b4;stroke:#1f77b4;" x="247.874339" xlink:href="#m44ead47af7" y="120.880167"/>
                    <use style="fill:#1f77b4;stroke:#1f77b4;" x="251.221293" xlink:href="#m44ead47af7" y="122.682849"/>
                    <use style="fill:#1f77b4;stroke:#1f77b4;" x="254.568247" xlink:href="#m44ead47af7" y="124.485532"/>
                    <use style="fill:#1f77b4;stroke:#1f77b4;" x="257.915201" xlink:href="#m44ead47af7" y="122.682849"/>
                    <use style="fill:#1f77b4;stroke:#1f77b4;" x="261.262156" xlink:href="#m44ead47af7" y="125.386873"/>
                    <use style="fill:#1f77b4;stroke:#1f77b4;" x="264.60911" xlink:href="#m44ead47af7" y="119.978826"/>
                    <use style="fill:#1f77b4;stroke:#1f77b4;" x="267.956064" xlink:href="#m44ead47af7" y="117.274802"/>
                    <use style="fill:#1f77b4;stroke:#1f77b4;" x="271.303018" xlink:href="#m44ead47af7" y="106.458706"/>
                    <use style="fill:#1f77b4;stroke:#1f77b4;" x="274.649972" xlink:href="#m44ead47af7" y="96.543952"/>
                    <use style="fill:#1f77b4;stroke:#1f77b4;" x="277.996926" xlink:href="#m44ead47af7" y="81.221151"/>
                    <use style="fill:#1f77b4;stroke:#1f77b4;" x="281.34388" xlink:href="#m44ead47af7" y="78.517127"/>
                    <use style="fill:#1f77b4;stroke:#1f77b4;" x="284.690834" xlink:href="#m44ead47af7" y="85.727857"/>
                    <use style="fill:#1f77b4;stroke:#1f77b4;" x="288.037788" xlink:href="#m44ead47af7" y="79.418468"/>
                    <use style="fill:#1f77b4;stroke:#1f77b4;" x="291.384742" xlink:href="#m44ead47af7" y="68.602373"/>
                    <use style="fill:#1f77b4;stroke:#1f77b4;" x="294.731696" xlink:href="#m44ead47af7" y="74.911762"/>
                    <use style="fill:#1f77b4;stroke:#1f77b4;" x="298.07865" xlink:href="#m44ead47af7" y="80.319809"/>
                    <use style="fill:#1f77b4;stroke:#1f77b4;" x="301.425604" xlink:href="#m44ead47af7" y="93.839928"/>
                    <use style="fill:#1f77b4;stroke:#1f77b4;" x="304.772559" xlink:href="#m44ead47af7" y="92.938587"/>
                    <use style="fill:#1f77b4;stroke:#1f77b4;" x="308.119513" xlink:href="#m44ead47af7" y="94.74127"/>
                    <use style="fill:#1f77b4;stroke:#1f77b4;" x="311.466467" xlink:href="#m44ead47af7" y="91.135905"/>
                    <use style="fill:#1f77b4;stroke:#1f77b4;" x="314.813421" xlink:href="#m44ead47af7" y="90.234563"/>
                    <use style="fill:#1f77b4;stroke:#1f77b4;" x="318.160375" xlink:href="#m44ead47af7" y="88.431881"/>
                    <use style="fill:#1f77b4;stroke:#1f77b4;" x="321.507329" xlink:href="#m44ead47af7" y="87.530539"/>
                    <use style="fill:#1f77b4;stroke:#1f77b4;" x="324.854283" xlink:href="#m44ead47af7" y="87.530539"/>
                    <use style="fill:#1f77b4;stroke:#1f77b4;" x="328.201237" xlink:href="#m44ead47af7" y="86.629198"/>
                    <use style="fill:#1f77b4;stroke:#1f77b4;" x="331.548191" xlink:href="#m44ead47af7" y="93.839928"/>
                    <use style="fill:#1f77b4;stroke:#1f77b4;" x="334.895145" xlink:href="#m44ead47af7" y="86.629198"/>
                    <use style="fill:#1f77b4;stroke:#1f77b4;" x="338.242099" xlink:href="#m44ead47af7" y="88.431881"/>
                    <use style="fill:#1f77b4;stroke:#1f77b4;" x="341.589053" xlink:href="#m44ead47af7" y="85.727857"/>
                    <use style="fill:#1f77b4;stroke:#1f77b4;" x="344.936007" xlink:href="#m44ead47af7" y="71.306396"/>
                    <use style="fill:#1f77b4;stroke:#1f77b4;" x="348.282962" xlink:href="#m44ead47af7" y="67.701031"/>
                    <use style="fill:#1f77b4;stroke:#1f77b4;" x="351.629916" xlink:href="#m44ead47af7" y="67.701031"/>
                    <use style="fill:#1f77b4;stroke:#1f77b4;" x="354.97687" xlink:href="#m44ead47af7" y="65.898349"/>
                    <use style="fill:#1f77b4;stroke:#1f77b4;" x="358.323824" xlink:href="#m44ead47af7" y="64.997007"/>
                    <use style="fill:#1f77b4;stroke:#1f77b4;" x="361.670778" xlink:href="#m44ead47af7" y="60.490301"/>
                    <use style="fill:#1f77b4;stroke:#1f77b4;" x="365.017732" xlink:href="#m44ead47af7" y="60.490301"/>
                    <use style="fill:#1f77b4;stroke:#1f77b4;" x="368.364686" xlink:href="#m44ead47af7" y="58.687618"/>
                    <use style="fill:#1f77b4;stroke:#1f77b4;" x="371.71164" xlink:href="#m44ead47af7" y="57.786277"/>
                    <use style="fill:#1f77b4;stroke:#1f77b4;" x="375.058594" xlink:href="#m44ead47af7" y="56.884936"/>
                    <use style="fill:#1f77b4;stroke:#1f77b4;" x="378.405548" xlink:href="#m44ead47af7" y="55.983595"/>
                    <use style="fill:#1f77b4;stroke:#1f77b4;" x="381.752502" xlink:href="#m44ead47af7" y="53.279571"/>
                    <use style="fill:#1f77b4;stroke:#1f77b4;" x="385.099456" xlink:href="#m44ead47af7" y="51.476888"/>
                    <use style="fill:#1f77b4;stroke:#1f77b4;" x="388.44641" xlink:href="#m44ead47af7" y="47.871523"/>
                    <use style="fill:#1f77b4;stroke:#1f77b4;" x="391.793365" xlink:href="#m44ead47af7" y="46.970182"/>
                    <use style="fill:#1f77b4;stroke:#1f77b4;" x="395.140319" xlink:href="#m44ead47af7" y="138.906993"/>
                    <use style="fill:#1f77b4;stroke:#1f77b4;" x="398.487273" xlink:href="#m44ead47af7" y="156.933818"/>
                </g>
            </g>
            <g id="patch_3">
                <path d="M 57.6 162.432
L 57.6 41.472 
" style="fill:none;stroke:#000000;stroke-linecap:square;stroke-linejoin:miter;stroke-width:0.8;"/>
            </g>
            <g id="patch_4">
                <path d="M 414.72 162.432
L 414.72 41.472 
" style="fill:none;stroke:#000000;stroke-linecap:square;stroke-linejoin:miter;stroke-width:0.8;"/>
            </g>
            <g id="patch_5">
                <path d="M 57.6 162.432
L 414.72 162.432 
" style="fill:none;stroke:#000000;stroke-linecap:square;stroke-linejoin:miter;stroke-width:0.8;"/>
            </g>
            <g id="patch_6">
                <path d="M 57.6 41.472
L 414.72 41.472 
" style="fill:none;stroke:#000000;stroke-linecap:square;stroke-linejoin:miter;stroke-width:0.8;"/>
            </g>
            <g id="legend_1">
                <g id="patch_7">
                    <path d="M 64.6 64.150125
L 143.117188 64.150125 
Q 145.117188 64.150125 145.117188 62.150125 
L 145.117188 48.472 
Q 145.117188 46.472 143.117188 46.472 
L 64.6 46.472 
Q 62.6 46.472 62.6 48.472 
L 62.6 62.150125 
Q 62.6 64.150125 64.6 64.150125 
z
" style="fill:#ffffff;opacity:0.8;stroke:#cccccc;stroke-linejoin:miter;"/>
                </g>
                <g id="line2d_14">
                    <path d="M 66.6 54.570437
L 86.6 54.570437 
" style="fill:none;stroke:#1f77b4;stroke-linecap:square;stroke-width:1.5;"/>
                </g>
                <g id="line2d_15">
                    <g>
                        <use style="fill:#1f77b4;stroke:#1f77b4;" x="76.6" xlink:href="#m44ead47af7" y="54.570437"/>
                    </g>
                </g>
                <g id="text_7">
                    <!-- time cost -->
                    <defs>
                        <path d="M 18.3125 70.21875
L 18.3125 54.6875 
L 36.8125 54.6875 
L 36.8125 47.703125 
L 18.3125 47.703125 
L 18.3125 18.015625 
Q 18.3125 11.328125 20.140625 9.421875 
Q 21.96875 7.515625 27.59375 7.515625 
L 36.8125 7.515625 
L 36.8125 0 
L 27.59375 0 
Q 17.1875 0 13.234375 3.875 
Q 9.28125 7.765625 9.28125 18.015625 
L 9.28125 47.703125 
L 2.6875 47.703125 
L 2.6875 54.6875 
L 9.28125 54.6875 
L 9.28125 70.21875 
z
" id="DejaVuSans-116"/>
                        <path d="M 9.421875 54.6875
L 18.40625 54.6875 
L 18.40625 0 
L 9.421875 0 
z
M 9.421875 75.984375 
L 18.40625 75.984375 
L 18.40625 64.59375 
L 9.421875 64.59375 
z
" id="DejaVuSans-105"/>
                        <path d="M 52 44.1875
Q 55.375 50.25 60.0625 53.125 
Q 64.75 56 71.09375 56 
Q 79.640625 56 84.28125 50.015625 
Q 88.921875 44.046875 88.921875 33.015625 
L 88.921875 0 
L 79.890625 0 
L 79.890625 32.71875 
Q 79.890625 40.578125 77.09375 44.375 
Q 74.3125 48.1875 68.609375 48.1875 
Q 61.625 48.1875 57.5625 43.546875 
Q 53.515625 38.921875 53.515625 30.90625 
L 53.515625 0 
L 44.484375 0 
L 44.484375 32.71875 
Q 44.484375 40.625 41.703125 44.40625 
Q 38.921875 48.1875 33.109375 48.1875 
Q 26.21875 48.1875 22.15625 43.53125 
Q 18.109375 38.875 18.109375 30.90625 
L 18.109375 0 
L 9.078125 0 
L 9.078125 54.6875 
L 18.109375 54.6875 
L 18.109375 46.1875 
Q 21.1875 51.21875 25.484375 53.609375 
Q 29.78125 56 35.6875 56 
Q 41.65625 56 45.828125 52.96875 
Q 50 49.953125 52 44.1875 
z
" id="DejaVuSans-109"/>
                        <path d="M 56.203125 29.59375
L 56.203125 25.203125 
L 14.890625 25.203125 
Q 15.484375 15.921875 20.484375 11.0625 
Q 25.484375 6.203125 34.421875 6.203125 
Q 39.59375 6.203125 44.453125 7.46875 
Q 49.3125 8.734375 54.109375 11.28125 
L 54.109375 2.78125 
Q 49.265625 0.734375 44.1875 -0.34375 
Q 39.109375 -1.421875 33.890625 -1.421875 
Q 20.796875 -1.421875 13.15625 6.1875 
Q 5.515625 13.8125 5.515625 26.8125 
Q 5.515625 40.234375 12.765625 48.109375 
Q 20.015625 56 32.328125 56 
Q 43.359375 56 49.78125 48.890625 
Q 56.203125 41.796875 56.203125 29.59375 
z
M 47.21875 32.234375 
Q 47.125 39.59375 43.09375 43.984375 
Q 39.0625 48.390625 32.421875 48.390625 
Q 24.90625 48.390625 20.390625 44.140625 
Q 15.875 39.890625 15.1875 32.171875 
z
" id="DejaVuSans-101"/>
                        <path id="DejaVuSans-32"/>
                        <path d="M 48.78125 52.59375
L 48.78125 44.1875 
Q 44.96875 46.296875 41.140625 47.34375 
Q 37.3125 48.390625 33.40625 48.390625 
Q 24.65625 48.390625 19.8125 42.84375 
Q 14.984375 37.3125 14.984375 27.296875 
Q 14.984375 17.28125 19.8125 11.734375 
Q 24.65625 6.203125 33.40625 6.203125 
Q 37.3125 6.203125 41.140625 7.25 
Q 44.96875 8.296875 48.78125 10.40625 
L 48.78125 2.09375 
Q 45.015625 0.34375 40.984375 -0.53125 
Q 36.96875 -1.421875 32.421875 -1.421875 
Q 20.0625 -1.421875 12.78125 6.34375 
Q 5.515625 14.109375 5.515625 27.296875 
Q 5.515625 40.671875 12.859375 48.328125 
Q 20.21875 56 33.015625 56 
Q 37.15625 56 41.109375 55.140625 
Q 45.0625 54.296875 48.78125 52.59375 
z
" id="DejaVuSans-99"/>
                        <path d="M 30.609375 48.390625
Q 23.390625 48.390625 19.1875 42.75 
Q 14.984375 37.109375 14.984375 27.296875 
Q 14.984375 17.484375 19.15625 11.84375 
Q 23.34375 6.203125 30.609375 6.203125 
Q 37.796875 6.203125 41.984375 11.859375 
Q 46.1875 17.53125 46.1875 27.296875 
Q 46.1875 37.015625 41.984375 42.703125 
Q 37.796875 48.390625 30.609375 48.390625 
z
M 30.609375 56 
Q 42.328125 56 49.015625 48.375 
Q 55.71875 40.765625 55.71875 27.296875 
Q 55.71875 13.875 49.015625 6.21875 
Q 42.328125 -1.421875 30.609375 -1.421875 
Q 18.84375 -1.421875 12.171875 6.21875 
Q 5.515625 13.875 5.515625 27.296875 
Q 5.515625 40.765625 12.171875 48.375 
Q 18.84375 56 30.609375 56 
z
" id="DejaVuSans-111"/>
                        <path d="M 44.28125 53.078125
L 44.28125 44.578125 
Q 40.484375 46.53125 36.375 47.5 
Q 32.28125 48.484375 27.875 48.484375 
Q 21.1875 48.484375 17.84375 46.4375 
Q 14.5 44.390625 14.5 40.28125 
Q 14.5 37.15625 16.890625 35.375 
Q 19.28125 33.59375 26.515625 31.984375 
L 29.59375 31.296875 
Q 39.15625 29.25 43.1875 25.515625 
Q 47.21875 21.78125 47.21875 15.09375 
Q 47.21875 7.46875 41.1875 3.015625 
Q 35.15625 -1.421875 24.609375 -1.421875 
Q 20.21875 -1.421875 15.453125 -0.5625 
Q 10.6875 0.296875 5.421875 2 
L 5.421875 11.28125 
Q 10.40625 8.6875 15.234375 7.390625 
Q 20.0625 6.109375 24.8125 6.109375 
Q 31.15625 6.109375 34.5625 8.28125 
Q 37.984375 10.453125 37.984375 14.40625 
Q 37.984375 18.0625 35.515625 20.015625 
Q 33.0625 21.96875 24.703125 23.78125 
L 21.578125 24.515625 
Q 13.234375 26.265625 9.515625 29.90625 
Q 5.8125 33.546875 5.8125 39.890625 
Q 5.8125 47.609375 11.28125 51.796875 
Q 16.75 56 26.8125 56 
Q 31.78125 56 36.171875 55.265625 
Q 40.578125 54.546875 44.28125 53.078125 
z
" id="DejaVuSans-115"/>
                    </defs>
                    <g transform="translate(94.6 58.070437)scale(0.1 -0.1)">
                        <use xlink:href="#DejaVuSans-116"/>
                        <use x="39.208984" xlink:href="#DejaVuSans-105"/>
                        <use x="66.992188" xlink:href="#DejaVuSans-109"/>
                        <use x="164.404297" xlink:href="#DejaVuSans-101"/>
                        <use x="225.927734" xlink:href="#DejaVuSans-32"/>
                        <use x="257.714844" xlink:href="#DejaVuSans-99"/>
                        <use x="312.695312" xlink:href="#DejaVuSans-111"/>
                        <use x="373.876953" xlink:href="#DejaVuSans-115"/>
                        <use x="425.976562" xlink:href="#DejaVuSans-116"/>
                    </g>
                </g>
            </g>
        </g>
        <g id="axes_2">
            <g id="patch_8">
                <path d="M 57.6 307.584
L 414.72 307.584 
L 414.72 186.624 
L 57.6 186.624 
z
" style="fill:none;"/>
            </g>
            <g id="matplotlib.axis_3">
                <g id="xtick_7">
                    <g id="line2d_16">
                        <g>
                            <use style="stroke:#000000;stroke-width:0.8;" x="73.832727" xlink:href="#mfbe7fe0251"
                                 y="307.584"/>
                        </g>
                    </g>
                    <g id="text_8">
                        <!-- 0 -->
                        <g transform="translate(70.651477 322.182437)scale(0.1 -0.1)">
                            <use xlink:href="#DejaVuSans-48"/>
                        </g>
                    </g>
                </g>
                <g id="xtick_8">
                    <g id="line2d_17">
                        <g>
                            <use style="stroke:#000000;stroke-width:0.8;" x="140.771809" xlink:href="#mfbe7fe0251"
                                 y="307.584"/>
                        </g>
                    </g>
                    <g id="text_9">
                        <!-- 20 -->
                        <g transform="translate(134.409309 322.182437)scale(0.1 -0.1)">
                            <use xlink:href="#DejaVuSans-50"/>
                            <use x="63.623047" xlink:href="#DejaVuSans-48"/>
                        </g>
                    </g>
                </g>
                <g id="xtick_9">
                    <g id="line2d_18">
                        <g>
                            <use style="stroke:#000000;stroke-width:0.8;" x="207.71089" xlink:href="#mfbe7fe0251"
                                 y="307.584"/>
                        </g>
                    </g>
                    <g id="text_10">
                        <!-- 40 -->
                        <defs>
                            <path d="M 37.796875 64.3125
L 12.890625 25.390625 
L 37.796875 25.390625 
z
M 35.203125 72.90625 
L 47.609375 72.90625 
L 47.609375 25.390625 
L 58.015625 25.390625 
L 58.015625 17.1875 
L 47.609375 17.1875 
L 47.609375 0 
L 37.796875 0 
L 37.796875 17.1875 
L 4.890625 17.1875 
L 4.890625 26.703125 
z
" id="DejaVuSans-52"/>
                        </defs>
                        <g transform="translate(201.34839 322.182437)scale(0.1 -0.1)">
                            <use xlink:href="#DejaVuSans-52"/>
                            <use x="63.623047" xlink:href="#DejaVuSans-48"/>
                        </g>
                    </g>
                </g>
                <g id="xtick_10">
                    <g id="line2d_19">
                        <g>
                            <use style="stroke:#000000;stroke-width:0.8;" x="274.649972" xlink:href="#mfbe7fe0251"
                                 y="307.584"/>
                        </g>
                    </g>
                    <g id="text_11">
                        <!-- 60 -->
                        <defs>
                            <path d="M 33.015625 40.375
Q 26.375 40.375 22.484375 35.828125 
Q 18.609375 31.296875 18.609375 23.390625 
Q 18.609375 15.53125 22.484375 10.953125 
Q 26.375 6.390625 33.015625 6.390625 
Q 39.65625 6.390625 43.53125 10.953125 
Q 47.40625 15.53125 47.40625 23.390625 
Q 47.40625 31.296875 43.53125 35.828125 
Q 39.65625 40.375 33.015625 40.375 
z
M 52.59375 71.296875 
L 52.59375 62.3125 
Q 48.875 64.0625 45.09375 64.984375 
Q 41.3125 65.921875 37.59375 65.921875 
Q 27.828125 65.921875 22.671875 59.328125 
Q 17.53125 52.734375 16.796875 39.40625 
Q 19.671875 43.65625 24.015625 45.921875 
Q 28.375 48.1875 33.59375 48.1875 
Q 44.578125 48.1875 50.953125 41.515625 
Q 57.328125 34.859375 57.328125 23.390625 
Q 57.328125 12.15625 50.6875 5.359375 
Q 44.046875 -1.421875 33.015625 -1.421875 
Q 20.359375 -1.421875 13.671875 8.265625 
Q 6.984375 17.96875 6.984375 36.375 
Q 6.984375 53.65625 15.1875 63.9375 
Q 23.390625 74.21875 37.203125 74.21875 
Q 40.921875 74.21875 44.703125 73.484375 
Q 48.484375 72.75 52.59375 71.296875 
z
" id="DejaVuSans-54"/>
                        </defs>
                        <g transform="translate(268.287472 322.182437)scale(0.1 -0.1)">
                            <use xlink:href="#DejaVuSans-54"/>
                            <use x="63.623047" xlink:href="#DejaVuSans-48"/>
                        </g>
                    </g>
                </g>
                <g id="xtick_11">
                    <g id="line2d_20">
                        <g>
                            <use style="stroke:#000000;stroke-width:0.8;" x="341.589053" xlink:href="#mfbe7fe0251"
                                 y="307.584"/>
                        </g>
                    </g>
                    <g id="text_12">
                        <!-- 80 -->
                        <defs>
                            <path d="M 31.78125 34.625
Q 24.75 34.625 20.71875 30.859375 
Q 16.703125 27.09375 16.703125 20.515625 
Q 16.703125 13.921875 20.71875 10.15625 
Q 24.75 6.390625 31.78125 6.390625 
Q 38.8125 6.390625 42.859375 10.171875 
Q 46.921875 13.96875 46.921875 20.515625 
Q 46.921875 27.09375 42.890625 30.859375 
Q 38.875 34.625 31.78125 34.625 
z
M 21.921875 38.8125 
Q 15.578125 40.375 12.03125 44.71875 
Q 8.5 49.078125 8.5 55.328125 
Q 8.5 64.0625 14.71875 69.140625 
Q 20.953125 74.21875 31.78125 74.21875 
Q 42.671875 74.21875 48.875 69.140625 
Q 55.078125 64.0625 55.078125 55.328125 
Q 55.078125 49.078125 51.53125 44.71875 
Q 48 40.375 41.703125 38.8125 
Q 48.828125 37.15625 52.796875 32.3125 
Q 56.78125 27.484375 56.78125 20.515625 
Q 56.78125 9.90625 50.3125 4.234375 
Q 43.84375 -1.421875 31.78125 -1.421875 
Q 19.734375 -1.421875 13.25 4.234375 
Q 6.78125 9.90625 6.78125 20.515625 
Q 6.78125 27.484375 10.78125 32.3125 
Q 14.796875 37.15625 21.921875 38.8125 
z
M 18.3125 54.390625 
Q 18.3125 48.734375 21.84375 45.5625 
Q 25.390625 42.390625 31.78125 42.390625 
Q 38.140625 42.390625 41.71875 45.5625 
Q 45.3125 48.734375 45.3125 54.390625 
Q 45.3125 60.0625 41.71875 63.234375 
Q 38.140625 66.40625 31.78125 66.40625 
Q 25.390625 66.40625 21.84375 63.234375 
Q 18.3125 60.0625 18.3125 54.390625 
z
" id="DejaVuSans-56"/>
                        </defs>
                        <g transform="translate(335.226553 322.182437)scale(0.1 -0.1)">
                            <use xlink:href="#DejaVuSans-56"/>
                            <use x="63.623047" xlink:href="#DejaVuSans-48"/>
                        </g>
                    </g>
                </g>
                <g id="xtick_12">
                    <g id="line2d_21">
                        <g>
                            <use style="stroke:#000000;stroke-width:0.8;" x="408.528135" xlink:href="#mfbe7fe0251"
                                 y="307.584"/>
                        </g>
                    </g>
                    <g id="text_13">
                        <!-- 100 -->
                        <g transform="translate(398.984385 322.182437)scale(0.1 -0.1)">
                            <use xlink:href="#DejaVuSans-49"/>
                            <use x="63.623047" xlink:href="#DejaVuSans-48"/>
                            <use x="127.246094" xlink:href="#DejaVuSans-48"/>
                        </g>
                    </g>
                </g>
            </g>
            <g id="matplotlib.axis_4">
                <g id="ytick_7">
                    <g id="line2d_22">
                        <g>
                            <use style="stroke:#000000;stroke-width:0.8;" x="57.6" xlink:href="#md00a8bda10"
                                 y="303.394153"/>
                        </g>
                    </g>
                    <g id="text_14">
                        <!-- 0 -->
                        <g transform="translate(44.2375 307.193372)scale(0.1 -0.1)">
                            <use xlink:href="#DejaVuSans-48"/>
                        </g>
                    </g>
                </g>
                <g id="ytick_8">
                    <g id="line2d_23">
                        <g>
                            <use style="stroke:#000000;stroke-width:0.8;" x="57.6" xlink:href="#md00a8bda10"
                                 y="277.989593"/>
                        </g>
                    </g>
                    <g id="text_15">
                        <!-- 2000 -->
                        <g transform="translate(25.15 281.788812)scale(0.1 -0.1)">
                            <use xlink:href="#DejaVuSans-50"/>
                            <use x="63.623047" xlink:href="#DejaVuSans-48"/>
                            <use x="127.246094" xlink:href="#DejaVuSans-48"/>
                            <use x="190.869141" xlink:href="#DejaVuSans-48"/>
                        </g>
                    </g>
                </g>
                <g id="ytick_9">
                    <g id="line2d_24">
                        <g>
                            <use style="stroke:#000000;stroke-width:0.8;" x="57.6" xlink:href="#md00a8bda10"
                                 y="252.585034"/>
                        </g>
                    </g>
                    <g id="text_16">
                        <!-- 4000 -->
                        <g transform="translate(25.15 256.384252)scale(0.1 -0.1)">
                            <use xlink:href="#DejaVuSans-52"/>
                            <use x="63.623047" xlink:href="#DejaVuSans-48"/>
                            <use x="127.246094" xlink:href="#DejaVuSans-48"/>
                            <use x="190.869141" xlink:href="#DejaVuSans-48"/>
                        </g>
                    </g>
                </g>
                <g id="ytick_10">
                    <g id="line2d_25">
                        <g>
                            <use style="stroke:#000000;stroke-width:0.8;" x="57.6" xlink:href="#md00a8bda10"
                                 y="227.180474"/>
                        </g>
                    </g>
                    <g id="text_17">
                        <!-- 6000 -->
                        <g transform="translate(25.15 230.979693)scale(0.1 -0.1)">
                            <use xlink:href="#DejaVuSans-54"/>
                            <use x="63.623047" xlink:href="#DejaVuSans-48"/>
                            <use x="127.246094" xlink:href="#DejaVuSans-48"/>
                            <use x="190.869141" xlink:href="#DejaVuSans-48"/>
                        </g>
                    </g>
                </g>
                <g id="ytick_11">
                    <g id="line2d_26">
                        <g>
                            <use style="stroke:#000000;stroke-width:0.8;" x="57.6" xlink:href="#md00a8bda10"
                                 y="201.775914"/>
                        </g>
                    </g>
                    <g id="text_18">
                        <!-- 8000 -->
                        <g transform="translate(25.15 205.575133)scale(0.1 -0.1)">
                            <use xlink:href="#DejaVuSans-56"/>
                            <use x="63.623047" xlink:href="#DejaVuSans-48"/>
                            <use x="127.246094" xlink:href="#DejaVuSans-48"/>
                            <use x="190.869141" xlink:href="#DejaVuSans-48"/>
                        </g>
                    </g>
                </g>
            </g>
            <g id="line2d_27">
                <path clip-path="url(#p8ede717f2b)" d="M 73.832727 192.122182
L 77.179681 208.889191 
L 80.526635 216.510559 
L 83.87359 198.219276 
L 87.220544 215.748422 
L 90.567498 246.996031 
L 93.914452 253.093125 
L 97.261406 251.568851 
L 100.60836 256.141672 
L 103.955314 256.903809 
L 107.302268 253.093125 
L 110.649222 246.996031 
L 113.996176 238.612526 
L 117.34313 235.563979 
L 120.690084 234.039705 
L 124.037038 229.466884 
L 127.383993 227.180474 
L 130.730947 226.418337 
L 134.077901 227.180474 
L 137.424855 226.418337 
L 140.771809 217.272696 
L 144.118763 203.554234 
L 147.465717 200.505686 
L 150.812671 212.699875 
L 154.159625 215.748422 
L 157.506579 215.748422 
L 160.853533 214.224149 
L 164.200487 215.748422 
L 167.547441 219.559106 
L 170.894396 216.510559 
L 174.24135 212.699875 
L 177.588304 212.699875 
L 180.935258 213.462012 
L 184.282212 218.034833 
L 187.629166 221.845517 
L 190.97612 227.180474 
L 194.323074 230.229021 
L 197.670028 227.942611 
L 201.016982 227.180474 
L 204.363936 229.466884 
L 207.71089 224.894064 
L 211.057844 222.607653 
L 214.404799 221.08338 
L 217.751753 220.321243 
L 221.098707 218.796969 
L 224.445661 218.796969 
L 227.792615 224.131927 
L 231.139569 229.466884 
L 234.486523 233.277568 
L 237.833477 237.088252 
L 241.180431 240.1368 
L 244.527385 243.185347 
L 247.874339 246.996031 
L 251.221293 250.044578 
L 254.568247 253.093125 
L 257.915201 256.141672 
L 261.262156 258.440785 
L 264.60911 260.447745 
L 267.956064 262.124446 
L 271.303018 262.988201 
L 274.649972 263.242247 
L 277.996926 262.670644 
L 281.34388 262.492812 
L 284.690834 263.03901 
L 288.037788 263.293056 
L 291.384742 263.216842 
L 294.731696 263.76304 
L 298.07865 264.677604 
L 301.425604 266.316198 
L 304.772559 267.802365 
L 308.119513 269.288532 
L 311.466467 270.533355 
L 314.813421 271.816285 
L 318.160375 273.023002 
L 321.507329 274.178909 
L 324.854283 275.423733 
L 328.201237 276.617747 
L 331.548191 278.014998 
L 334.895145 279.19631 
L 338.242099 280.428431 
L 341.589053 281.622445 
L 344.936007 282.53701 
L 348.282962 283.464276 
L 351.629916 284.493161 
L 354.97687 285.54745 
L 358.323824 286.639846 
L 361.670778 287.732242 
L 365.017732 288.875447 
L 368.364686 290.056759 
L 371.71164 291.263476 
L 375.058594 292.508299 
L 378.405548 293.778527 
L 381.752502 295.07416 
L 385.099456 296.382495 
L 388.44641 297.716234 
L 391.793365 299.08808 
L 395.140319 300.663163 
L 398.487273 302.085818 
" style="fill:none;stroke:#1f77b4;stroke-linecap:square;stroke-width:1.5;"/>
            </g>
            <g id="line2d_28">
                <path clip-path="url(#p8ede717f2b)" d="M 73.832727 295.848999
L 77.179681 295.302801 
L 80.526635 294.769305 
L 83.87359 293.638802 
L 87.220544 293.257734 
L 90.567498 293.643036 
L 93.914452 293.43738 
L 97.261406 293.168818 
L 100.60836 293.11942 
L 103.955314 292.876665 
L 107.302268 292.500216 
L 110.649222 292.029847 
L 113.996176 291.323079 
L 117.34313 290.675542 
L 120.690084 290.149909 
L 124.037038 289.456576 
L 127.383993 288.820155 
L 130.730947 288.291142 
L 134.077901 287.798428 
L 137.424855 287.338471 
L 140.771809 286.334991 
L 144.118763 284.884622 
L 147.465717 283.917692 
L 150.812671 283.966016 
L 154.159625 283.65481 
L 157.506579 283.220978 
L 160.853533 282.65086 
L 164.200487 282.261189 
L 167.547441 282.122652 
L 170.894396 281.520827 
L 174.24135 280.832446 
L 177.588304 280.369683 
L 180.935258 279.925729 
L 184.282212 279.895683 
L 187.629166 279.898565 
L 190.97612 280.089704 
L 194.323074 280.16546 
L 197.670028 279.871536 
L 201.016982 279.592686 
L 204.363936 279.539272 
L 207.71089 279.010113 
L 211.057844 278.485587 
L 214.404799 278.069943 
L 217.751753 277.689358 
L 221.098707 277.296613 
L 224.445661 276.986113 
L 227.792615 277.267455 
L 231.139569 277.64769 
L 234.486523 278.023553 
L 237.833477 278.396066 
L 241.180431 278.766176 
L 244.527385 279.193379 
L 247.874339 279.694096 
L 251.221293 280.216726 
L 254.568247 280.75869 
L 257.915201 281.277669 
L 261.262156 281.824122 
L 264.60911 282.311873 
L 267.956064 282.774262 
L 271.303018 283.138251 
L 274.649972 283.424295 
L 277.996926 283.596216 
L 281.34388 283.774171 
L 284.690834 284.03826 
L 288.037788 284.277222 
L 291.384742 284.463522 
L 294.731696 284.725214 
L 298.07865 285.049072 
L 301.425604 285.480441 
L 304.772559 285.919445 
L 308.119513 286.381864 
L 311.466467 286.836026 
L 314.813421 287.29845 
L 318.160375 287.764856 
L 321.507329 288.240333 
L 324.854283 288.729037 
L 328.201237 289.226657 
L 331.548191 289.765584 
L 334.895145 290.286365 
L 338.242099 290.825247 
L 341.589053 291.365721 
L 344.936007 291.872875 
L 348.282962 292.38648 
L 351.629916 292.917797 
L 354.97687 293.461717 
L 358.323824 294.020757 
L 361.670778 294.587239 
L 365.017732 295.171736 
L 368.364686 295.770502 
L 371.71164 296.385317 
L 375.058594 297.016073 
L 378.405548 297.662663 
L 381.752502 298.323075 
L 385.099456 298.998894 
L 388.44641 299.689099 
L 391.793365 300.396415 
L 395.140319 301.161171 
L 398.487273 301.920689 
" style="fill:none;stroke:#800080;stroke-linecap:square;stroke-width:1.5;"/>
            </g>
            <g id="line2d_29">
                <path clip-path="url(#p8ede717f2b)" d="M 73.832727 229.962273
L 77.179681 230.051189 
L 80.526635 230.152808 
L 83.87359 230.292533 
L 87.220544 230.419555 
L 90.567498 230.508471 
L 93.914452 230.635494 
L 97.261406 230.775219 
L 100.60836 230.902242 
L 103.955314 231.054669 
L 107.302268 231.232501 
L 110.649222 231.435738 
L 113.996176 231.689783 
L 117.34313 231.956531 
L 120.690084 232.223279 
L 124.037038 232.540836 
L 127.383993 232.871095 
L 130.730947 233.201355 
L 134.077901 233.544316 
L 137.424855 233.89998 
L 140.771809 234.420774 
L 144.118763 235.106697 
L 147.465717 235.703704 
L 150.812671 236.021261 
L 154.159625 236.465841 
L 157.506579 236.973932 
L 160.853533 237.558237 
L 164.200487 238.104435 
L 167.547441 238.574419 
L 170.894396 239.260342 
L 174.24135 240.022479 
L 177.588304 240.721104 
L 180.935258 241.445134 
L 184.282212 241.991332 
L 187.629166 242.53753 
L 190.97612 242.994812 
L 194.323074 243.528308 
L 197.670028 244.303147 
L 201.016982 245.103391 
L 204.363936 245.789314 
L 207.71089 246.830901 
L 211.057844 247.923297 
L 214.404799 248.990289 
L 217.751753 250.082685 
L 221.098707 251.238592 
L 224.445661 252.381797 
L 227.792615 253.055018 
L 231.139569 253.652025 
L 234.486523 254.261735 
L 237.833477 254.884146 
L 241.180431 255.51926 
L 244.527385 256.103565 
L 247.874339 256.611656 
L 251.221293 257.094343 
L 254.568247 257.551625 
L 257.915201 258.034312 
L 261.262156 258.478892 
L 264.60911 258.999685 
L 267.956064 259.558585 
L 271.303018 260.269913 
L 274.649972 261.120966 
L 277.996926 262.187957 
L 281.34388 263.293056 
L 284.690834 264.296536 
L 288.037788 265.388932 
L 291.384742 266.633755 
L 294.731696 267.789663 
L 298.07865 268.869356 
L 301.425604 269.758516 
L 304.772559 270.660378 
L 308.119513 271.536835 
L 311.466467 272.464102 
L 314.813421 273.40407 
L 318.160375 274.369444 
L 321.507329 275.347519 
L 324.854283 276.325595 
L 328.201237 277.316373 
L 331.548191 278.205532 
L 334.895145 279.19631 
L 338.242099 280.161683 
L 341.589053 281.165163 
L 344.936007 282.37188 
L 348.282962 283.629406 
L 351.629916 284.886931 
L 354.97687 286.169862 
L 358.323824 287.465494 
L 361.670778 288.824638 
L 365.017732 290.183782 
L 368.364686 291.56833 
L 371.71164 292.965581 
L 375.058594 294.375534 
L 378.405548 295.79819 
L 381.752502 297.258952 
L 385.099456 298.745119 
L 388.44641 300.282094 
L 391.793365 301.831773 
L 395.140319 302.085818 
L 398.487273 302.085818 
" style="fill:none;stroke:#ff0000;stroke-linecap:square;stroke-width:1.5;"/>
            </g>
            <g id="patch_9">
                <path d="M 57.6 307.584
L 57.6 186.624 
" style="fill:none;stroke:#000000;stroke-linecap:square;stroke-linejoin:miter;stroke-width:0.8;"/>
            </g>
            <g id="patch_10">
                <path d="M 414.72 307.584
L 414.72 186.624 
" style="fill:none;stroke:#000000;stroke-linecap:square;stroke-linejoin:miter;stroke-width:0.8;"/>
            </g>
            <g id="patch_11">
                <path d="M 57.6 307.584
L 414.72 307.584 
" style="fill:none;stroke:#000000;stroke-linecap:square;stroke-linejoin:miter;stroke-width:0.8;"/>
            </g>
            <g id="patch_12">
                <path d="M 57.6 186.624
L 414.72 186.624 
" style="fill:none;stroke:#000000;stroke-linecap:square;stroke-linejoin:miter;stroke-width:0.8;"/>
            </g>
            <g id="legend_2">
                <g id="patch_13">
                    <path d="M 302.598125 238.658375
L 407.72 238.658375 
Q 409.72 238.658375 409.72 236.658375 
L 409.72 193.624 
Q 409.72 191.624 407.72 191.624 
L 302.598125 191.624 
Q 300.598125 191.624 300.598125 193.624 
L 300.598125 236.658375 
Q 300.598125 238.658375 302.598125 238.658375 
z
" style="fill:#ffffff;opacity:0.8;stroke:#cccccc;stroke-linejoin:miter;"/>
                </g>
                <g id="line2d_30">
                    <path d="M 304.598125 199.722437
L 324.598125 199.722437 
" style="fill:none;stroke:#1f77b4;stroke-linecap:square;stroke-width:1.5;"/>
                </g>
                <g id="line2d_31"/>
                <g id="text_19">
                    <!-- non-linear ETA -->
                    <defs>
                        <path d="M 54.890625 33.015625
L 54.890625 0 
L 45.90625 0 
L 45.90625 32.71875 
Q 45.90625 40.484375 42.875 44.328125 
Q 39.84375 48.1875 33.796875 48.1875 
Q 26.515625 48.1875 22.3125 43.546875 
Q 18.109375 38.921875 18.109375 30.90625 
L 18.109375 0 
L 9.078125 0 
L 9.078125 54.6875 
L 18.109375 54.6875 
L 18.109375 46.1875 
Q 21.34375 51.125 25.703125 53.5625 
Q 30.078125 56 35.796875 56 
Q 45.21875 56 50.046875 50.171875 
Q 54.890625 44.34375 54.890625 33.015625 
z
" id="DejaVuSans-110"/>
                        <path d="M 4.890625 31.390625
L 31.203125 31.390625 
L 31.203125 23.390625 
L 4.890625 23.390625 
z
" id="DejaVuSans-45"/>
                        <path d="M 9.421875 75.984375
L 18.40625 75.984375 
L 18.40625 0 
L 9.421875 0 
z
" id="DejaVuSans-108"/>
                        <path d="M 34.28125 27.484375
Q 23.390625 27.484375 19.1875 25 
Q 14.984375 22.515625 14.984375 16.5 
Q 14.984375 11.71875 18.140625 8.90625 
Q 21.296875 6.109375 26.703125 6.109375 
Q 34.1875 6.109375 38.703125 11.40625 
Q 43.21875 16.703125 43.21875 25.484375 
L 43.21875 27.484375 
z
M 52.203125 31.203125 
L 52.203125 0 
L 43.21875 0 
L 43.21875 8.296875 
Q 40.140625 3.328125 35.546875 0.953125 
Q 30.953125 -1.421875 24.3125 -1.421875 
Q 15.921875 -1.421875 10.953125 3.296875 
Q 6 8.015625 6 15.921875 
Q 6 25.140625 12.171875 29.828125 
Q 18.359375 34.515625 30.609375 34.515625 
L 43.21875 34.515625 
L 43.21875 35.40625 
Q 43.21875 41.609375 39.140625 45 
Q 35.0625 48.390625 27.6875 48.390625 
Q 23 48.390625 18.546875 47.265625 
Q 14.109375 46.140625 10.015625 43.890625 
L 10.015625 52.203125 
Q 14.9375 54.109375 19.578125 55.046875 
Q 24.21875 56 28.609375 56 
Q 40.484375 56 46.34375 49.84375 
Q 52.203125 43.703125 52.203125 31.203125 
z
" id="DejaVuSans-97"/>
                        <path d="M 41.109375 46.296875
Q 39.59375 47.171875 37.8125 47.578125 
Q 36.03125 48 33.890625 48 
Q 26.265625 48 22.1875 43.046875 
Q 18.109375 38.09375 18.109375 28.8125 
L 18.109375 0 
L 9.078125 0 
L 9.078125 54.6875 
L 18.109375 54.6875 
L 18.109375 46.1875 
Q 20.953125 51.171875 25.484375 53.578125 
Q 30.03125 56 36.53125 56 
Q 37.453125 56 38.578125 55.875 
Q 39.703125 55.765625 41.0625 55.515625 
z
" id="DejaVuSans-114"/>
                        <path d="M 9.8125 72.90625
L 55.90625 72.90625 
L 55.90625 64.59375 
L 19.671875 64.59375 
L 19.671875 43.015625 
L 54.390625 43.015625 
L 54.390625 34.71875 
L 19.671875 34.71875 
L 19.671875 8.296875 
L 56.78125 8.296875 
L 56.78125 0 
L 9.8125 0 
z
" id="DejaVuSans-69"/>
                        <path d="M -0.296875 72.90625
L 61.375 72.90625 
L 61.375 64.59375 
L 35.5 64.59375 
L 35.5 0 
L 25.59375 0 
L 25.59375 64.59375 
L -0.296875 64.59375 
z
" id="DejaVuSans-84"/>
                        <path d="M 34.1875 63.1875
L 20.796875 26.90625 
L 47.609375 26.90625 
z
M 28.609375 72.90625 
L 39.796875 72.90625 
L 67.578125 0 
L 57.328125 0 
L 50.6875 18.703125 
L 17.828125 18.703125 
L 11.1875 0 
L 0.78125 0 
z
" id="DejaVuSans-65"/>
                    </defs>
                    <g transform="translate(332.598125 203.222437)scale(0.1 -0.1)">
                        <use xlink:href="#DejaVuSans-110"/>
                        <use x="63.378906" xlink:href="#DejaVuSans-111"/>
                        <use x="124.560547" xlink:href="#DejaVuSans-110"/>
                        <use x="187.939453" xlink:href="#DejaVuSans-45"/>
                        <use x="224.023438" xlink:href="#DejaVuSans-108"/>
                        <use x="251.806641" xlink:href="#DejaVuSans-105"/>
                        <use x="279.589844" xlink:href="#DejaVuSans-110"/>
                        <use x="342.96875" xlink:href="#DejaVuSans-101"/>
                        <use x="404.492188" xlink:href="#DejaVuSans-97"/>
                        <use x="465.771484" xlink:href="#DejaVuSans-114"/>
                        <use x="506.884766" xlink:href="#DejaVuSans-32"/>
                        <use x="538.671875" xlink:href="#DejaVuSans-69"/>
                        <use x="601.855469" xlink:href="#DejaVuSans-84"/>
                        <use x="662.830078" xlink:href="#DejaVuSans-65"/>
                    </g>
                </g>
                <g id="line2d_32">
                    <path d="M 304.598125 214.400562
L 324.598125 214.400562 
" style="fill:none;stroke:#800080;stroke-linecap:square;stroke-width:1.5;"/>
                </g>
                <g id="line2d_33"/>
                <g id="text_20">
                    <!-- linear ETA -->
                    <g transform="translate(332.598125 217.900562)scale(0.1 -0.1)">
                        <use xlink:href="#DejaVuSans-108"/>
                        <use x="27.783203" xlink:href="#DejaVuSans-105"/>
                        <use x="55.566406" xlink:href="#DejaVuSans-110"/>
                        <use x="118.945312" xlink:href="#DejaVuSans-101"/>
                        <use x="180.46875" xlink:href="#DejaVuSans-97"/>
                        <use x="241.748047" xlink:href="#DejaVuSans-114"/>
                        <use x="282.861328" xlink:href="#DejaVuSans-32"/>
                        <use x="314.648438" xlink:href="#DejaVuSans-69"/>
                        <use x="377.832031" xlink:href="#DejaVuSans-84"/>
                        <use x="438.806641" xlink:href="#DejaVuSans-65"/>
                    </g>
                </g>
                <g id="line2d_34">
                    <path d="M 304.598125 229.078688
L 324.598125 229.078688 
" style="fill:none;stroke:#ff0000;stroke-linecap:square;stroke-width:1.5;"/>
                </g>
                <g id="line2d_35"/>
                <g id="text_21">
                    <!-- remaining -->
                    <defs>
                        <path d="M 45.40625 27.984375
Q 45.40625 37.75 41.375 43.109375 
Q 37.359375 48.484375 30.078125 48.484375 
Q 22.859375 48.484375 18.828125 43.109375 
Q 14.796875 37.75 14.796875 27.984375 
Q 14.796875 18.265625 18.828125 12.890625 
Q 22.859375 7.515625 30.078125 7.515625 
Q 37.359375 7.515625 41.375 12.890625 
Q 45.40625 18.265625 45.40625 27.984375 
z
M 54.390625 6.78125 
Q 54.390625 -7.171875 48.1875 -13.984375 
Q 42 -20.796875 29.203125 -20.796875 
Q 24.46875 -20.796875 20.265625 -20.09375 
Q 16.0625 -19.390625 12.109375 -17.921875 
L 12.109375 -9.1875 
Q 16.0625 -11.328125 19.921875 -12.34375 
Q 23.78125 -13.375 27.78125 -13.375 
Q 36.625 -13.375 41.015625 -8.765625 
Q 45.40625 -4.15625 45.40625 5.171875 
L 45.40625 9.625 
Q 42.625 4.78125 38.28125 2.390625 
Q 33.9375 0 27.875 0 
Q 17.828125 0 11.671875 7.65625 
Q 5.515625 15.328125 5.515625 27.984375 
Q 5.515625 40.671875 11.671875 48.328125 
Q 17.828125 56 27.875 56 
Q 33.9375 56 38.28125 53.609375 
Q 42.625 51.21875 45.40625 46.390625 
L 45.40625 54.6875 
L 54.390625 54.6875 
z
" id="DejaVuSans-103"/>
                    </defs>
                    <g transform="translate(332.598125 232.578688)scale(0.1 -0.1)">
                        <use xlink:href="#DejaVuSans-114"/>
                        <use x="41.082031" xlink:href="#DejaVuSans-101"/>
                        <use x="102.605469" xlink:href="#DejaVuSans-109"/>
                        <use x="200.017578" xlink:href="#DejaVuSans-97"/>
                        <use x="261.296875" xlink:href="#DejaVuSans-105"/>
                        <use x="289.080078" xlink:href="#DejaVuSans-110"/>
                        <use x="352.458984" xlink:href="#DejaVuSans-105"/>
                        <use x="380.242188" xlink:href="#DejaVuSans-110"/>
                        <use x="443.621094" xlink:href="#DejaVuSans-103"/>
                    </g>
                </g>
            </g>
        </g>
    </g>
    <defs>
        <clipPath id="p0bd09e3c83">
            <rect height="120.96" width="357.12" x="57.6" y="41.472"/>
        </clipPath>
        <clipPath id="p8ede717f2b">
            <rect height="120.96" width="357.12" x="57.6" y="186.624"/>
        </clipPath>
    </defs>
</svg>
